<svg width="50" height="50" viewBox="0 0 50 50" fill="none" xmlns="http://www.w3.org/2000/svg">
<circle cx="25" cy="25" r="25" fill="#B7794D"/>
<path d="M34.9502 21.2C34.1127 20.275 32.8502 19.7375 31.1002 19.55V18.6C31.1002 16.8875 30.3752 15.2375 29.1002 14.0875C27.8127 12.9125 26.1377 12.3625 24.4002 12.525C21.4127 12.8125 18.9002 15.7 18.9002 18.825V19.55C17.1502 19.7375 15.8877 20.275 15.0502 21.2C13.8377 22.55 13.8752 24.35 14.0127 25.6L14.8877 32.5625C15.1502 35 16.1377 37.5 21.5127 37.5H28.4877C33.8627 37.5 34.8502 35 35.1127 32.575L35.9877 25.5875C36.1252 24.35 36.1502 22.55 34.9502 21.2ZM24.5752 14.2625C25.8252 14.15 27.0127 14.5375 27.9377 15.375C28.8502 16.2 29.3627 17.375 29.3627 18.6V19.475H20.6377V18.825C20.6377 16.6 22.4752 14.4625 24.5752 14.2625ZM20.5252 26.4375H20.5127C19.8252 26.4375 19.2627 25.875 19.2627 25.1875C19.2627 24.5 19.8252 23.9375 20.5127 23.9375C21.2127 23.9375 21.7752 24.5 21.7752 25.1875C21.7752 25.875 21.2127 26.4375 20.5252 26.4375ZM29.2752 26.4375H29.2627C28.5752 26.4375 28.0127 25.875 28.0127 25.1875C28.0127 24.5 28.5752 23.9375 29.2627 23.9375C29.9627 23.9375 30.5252 24.5 30.5252 25.1875C30.5252 25.875 29.9627 26.4375 29.2752 26.4375Z" fill="white"/>
</svg>
