<svg width="50" height="50" viewBox="0 0 50 50" fill="none" xmlns="http://www.w3.org/2000/svg">
<circle cx="25" cy="25" r="25" fill="#FEC90F"/>
<path d="M19.05 12.5H16.675C13.9375 12.5 12.5 13.9375 12.5 16.6625V19.0375C12.5 21.7625 13.9375 23.2 16.6625 23.2H19.0375C21.7625 23.2 23.2 21.7625 23.2 19.0375V16.6625C23.2125 13.9375 21.775 12.5 19.05 12.5Z" fill="white"/>
<path d="M33.3373 12.5H30.9623C28.2373 12.5 26.7998 13.9375 26.7998 16.6625V19.0375C26.7998 21.7625 28.2373 23.2 30.9623 23.2H33.3373C36.0623 23.2 37.4998 21.7625 37.4998 19.0375V16.6625C37.4998 13.9375 36.0623 12.5 33.3373 12.5Z" fill="white"/>
<path d="M33.3373 26.7875H30.9623C28.2373 26.7875 26.7998 28.225 26.7998 30.95V33.325C26.7998 36.05 28.2373 37.4875 30.9623 37.4875H33.3373C36.0623 37.4875 37.4998 36.05 37.4998 33.325V30.95C37.4998 28.225 36.0623 26.7875 33.3373 26.7875Z" fill="white"/>
<path d="M19.05 26.7875H16.675C13.9375 26.7875 12.5 28.225 12.5 30.95V33.325C12.5 36.0625 13.9375 37.5 16.6625 37.5H19.0375C21.7625 37.5 23.2 36.0625 23.2 33.3375V30.9625C23.2125 28.225 21.775 26.7875 19.05 26.7875Z" fill="white"/>
</svg>
