<svg width="50" height="50" viewBox="0 0 50 50" fill="none" xmlns="http://www.w3.org/2000/svg">
<circle cx="25" cy="25" r="25" fill="#00CC08"/>
<path d="M23.8125 28.6875L21.5 31C21.0125 31.4875 20.2375 31.4875 19.7375 31.0125C19.6 30.875 19.4625 30.75 19.325 30.6125C18.0375 29.3125 16.875 27.95 15.8375 26.525C14.8125 25.1 13.9875 23.675 13.3875 22.2625C12.8 20.8375 12.5 19.475 12.5 18.175C12.5 17.325 12.65 16.5125 12.95 15.7625C13.25 15 13.725 14.3 14.3875 13.675C15.1875 12.8875 16.0625 12.5 16.9875 12.5C17.3375 12.5 17.6875 12.575 18 12.725C18.325 12.875 18.6125 13.1 18.8375 13.425L21.7375 17.5125C21.9625 17.825 22.125 18.1125 22.2375 18.3875C22.35 18.65 22.4125 18.9125 22.4125 19.15C22.4125 19.45 22.325 19.75 22.15 20.0375C21.9875 20.325 21.75 20.625 21.45 20.925L20.5 21.9125C20.3625 22.05 20.3 22.2125 20.3 22.4125C20.3 22.5125 20.3125 22.6 20.3375 22.7C20.375 22.8 20.4125 22.875 20.4375 22.95C20.6625 23.3625 21.05 23.9 21.6 24.55C22.1625 25.2 22.7625 25.8625 23.4125 26.525C23.5375 26.65 23.675 26.775 23.8 26.9C24.3 27.3875 24.3125 28.1875 23.8125 28.6875Z" fill="white"/>
<path d="M37.4625 32.9125C37.4625 33.2625 37.4 33.6251 37.275 33.975C37.2375 34.075 37.2 34.175 37.15 34.275C36.9375 34.725 36.6625 35.1501 36.3 35.5501C35.6875 36.225 35.0125 36.7126 34.25 37.0251C34.2375 37.0251 34.225 37.0375 34.2125 37.0375C33.475 37.3375 32.675 37.5 31.8125 37.5C30.5375 37.5 29.175 37.2001 27.7375 36.5876C26.3 35.975 24.8625 35.1501 23.4375 34.1126C22.95 33.7501 22.4625 33.3875 22 33L26.0875 28.9125C26.4375 29.175 26.75 29.375 27.0125 29.5125C27.075 29.5375 27.15 29.575 27.2375 29.6125C27.3375 29.65 27.4375 29.6625 27.55 29.6625C27.7625 29.6625 27.925 29.5875 28.0625 29.45L29.0125 28.5125C29.325 28.2 29.625 27.9625 29.9125 27.8125C30.2 27.6375 30.4875 27.55 30.8 27.55C31.0375 27.55 31.2875 27.6 31.5625 27.7125C31.8375 27.825 32.125 27.9875 32.4375 28.2L36.575 31.1375C36.9 31.3625 37.125 31.625 37.2625 31.9375C37.3875 32.25 37.4625 32.5625 37.4625 32.9125Z" fill="white"/>
</svg>
