<svg width="24" height="22" viewBox="0 0 24 22" fill="none" xmlns="http://www.w3.org/2000/svg">
<path d="M22.2232 0.00225256C21.9268 0.0242591 21.6359 0.0952212 21.3618 0.21237H21.3581C21.095 0.318843 19.8439 0.855916 17.9419 1.67001L11.1262 4.59941C6.23555 6.70059 1.42799 8.76974 1.42799 8.76974L1.48523 8.74712C1.48523 8.74712 1.15377 8.85831 0.807537 9.10046C0.593636 9.23936 0.409575 9.42111 0.266489 9.63471C0.0966041 9.88911 -0.0400426 10.2783 0.0107383 10.6806C0.0938343 11.3609 0.525933 11.7689 0.836159 11.9941C1.15008 12.2221 1.44922 12.3286 1.44922 12.3286H1.45661L5.96503 13.8785C6.16723 14.5409 7.33888 18.4719 7.62049 19.3774C7.78668 19.9182 7.94825 20.2565 8.15045 20.5147C8.24832 20.6466 8.36281 20.7568 8.50038 20.8454C8.5719 20.8879 8.64815 20.9214 8.72751 20.9453L8.68134 20.934C8.69519 20.9377 8.70627 20.949 8.71643 20.9528C8.75336 20.9632 8.77829 20.9669 8.82538 20.9745C9.53908 21.195 10.1124 20.7427 10.1124 20.7427L10.1448 20.7163L12.8066 18.243L17.2679 21.7358L17.3695 21.7801C18.2992 22.1966 19.241 21.9648 19.7387 21.5558C20.24 21.1441 20.4348 20.6174 20.4348 20.6174L20.4671 20.5326L23.9147 2.50859C24.0126 2.06386 24.0375 1.64739 23.9295 1.24317C23.818 0.83408 23.5609 0.482233 23.2084 0.256655C22.9124 0.0730283 22.5692 -0.0156042 22.2232 0.00225256ZM22.13 1.93383C22.1263 1.99319 22.1374 1.9866 22.1115 2.10061V2.11097L18.6963 19.9475C18.6815 19.9729 18.6566 20.0285 18.5882 20.0841C18.5162 20.1425 18.459 20.1792 18.1589 20.0577L12.7023 15.7884L9.40613 18.8545L10.0986 14.3412L19.0139 5.86106C19.3813 5.51243 19.2585 5.43894 19.2585 5.43894C19.2844 5.01117 18.7036 5.31362 18.7036 5.31362L7.46168 12.4209L7.45799 12.402L2.06967 10.5506V10.5468L2.05582 10.544C2.06527 10.5408 2.07452 10.537 2.08352 10.5327L2.11307 10.5176L2.14169 10.5072C2.14169 10.5072 6.95295 8.43807 11.8436 6.33689C14.2922 5.28441 16.7592 4.2244 18.6566 3.40654C20.5539 2.59339 21.9564 1.99696 22.0358 1.96492C22.1115 1.93477 22.0755 1.93477 22.13 1.93477V1.93383Z" fill="black"/>
</svg>
