<svg width="50" height="50" viewBox="0 0 50 50" fill="none" xmlns="http://www.w3.org/2000/svg">
<circle cx="25" cy="25" r="25" fill="url(#paint0_linear_39_423)"/>
<path d="M25 12.5C18.1125 12.5 12.5 18.1125 12.5 25C12.5 31.8875 18.1125 37.5 25 37.5C31.8875 37.5 37.5 31.8875 37.5 25C37.5 18.1125 31.8875 12.5 25 12.5ZM30.975 22.125L23.8875 29.2125C23.7125 29.3875 23.475 29.4875 23.225 29.4875C22.975 29.4875 22.7375 29.3875 22.5625 29.2125L19.025 25.675C18.6625 25.3125 18.6625 24.7125 19.025 24.35C19.3875 23.9875 19.9875 23.9875 20.35 24.35L23.225 27.225L29.65 20.8C30.0125 20.4375 30.6125 20.4375 30.975 20.8C31.3375 21.1625 31.3375 21.75 30.975 22.125Z" fill="#F8F6F5"/>
<defs>
<linearGradient id="paint0_linear_39_423" x1="0" y1="0" x2="45.7346" y2="-2.45374" gradientUnits="userSpaceOnUse">
<stop stop-color="#394DFF"/>
<stop offset="1" stop-color="#39B8FF"/>
</linearGradient>
</defs>
</svg>
