<svg xmlns="http://www.w3.org/2000/svg" width="40" height="40" fill="none"><path fill="#A098AE" d="m33.793 25.088-1.293.647-1.293-.647a.834.834 0 0 0-.747 0l-1.293.647-.834-.417V7.5a.834.834 0 0 0-1.206-.745l-1.294.647-1.293-.647a.834.834 0 0 0-.747 0l-1.293.647-1.293-.647a.833.833 0 0 0-.747 0l-1.293.647-1.294-.647a.833.833 0 0 0-.746 0l-1.294.647-1.293-.647a.834.834 0 0 0-.747 0l-1.293.647-1.293-.647a.833.833 0 0 0-.747 0l-1.293.647-1.294-.647a.833.833 0 0 0-1.206.745v23.333A4.167 4.167 0 0 0 10.833 35h20A4.167 4.167 0 0 0 35 30.833v-5a.833.833 0 0 0-1.207-.745ZM17.5 16.667a3.333 3.333 0 0 1-2.5 3.215V27.5a.833.833 0 1 1-1.667 0v-7.618a3.334 3.334 0 0 1-2.5-3.215v-2.5a.833.833 0 1 1 1.667 0v2.5a1.642 1.642 0 0 0 .833 1.41v-3.91a.833.833 0 1 1 1.667 0v3.91a1.642 1.642 0 0 0 .833-1.41v-2.5a.833.833 0 1 1 1.667 0v2.5Zm5.758 6.711-2.425.607V27.5a.833.833 0 1 1-1.666 0V14.167a.833.833 0 0 1 1.423-.59 12.132 12.132 0 0 1 3.577 8.636 1.198 1.198 0 0 1-.909 1.165Zm10.075 7.455a2.5 2.5 0 0 1-5 0v-3.651l.46.23a.834.834 0 0 0 .747 0l1.293-.647 1.294.647a.834.834 0 0 0 .746 0l.46-.23v3.651Z"/></svg>