<svg xmlns="http://www.w3.org/2000/svg" width="40" height="40" fill="none"><path fill="#A098AE" d="M20 10.833v9.655l-6.423 6.422a.834.834 0 1 0 1.18 1.18l6.666-6.667a.831.831 0 0 0 .244-.59v-10a.833.833 0 0 0-1.667 0Zm14.167 15.834h-10a.834.834 0 1 0 0 1.666h10a.834.834 0 0 0 0-1.666Z"/><path fill="#A098AE" d="M32.5 10a.833.833 0 0 0-.833.833v.914a14.02 14.02 0 0 0-10.834-5.08A14.167 14.167 0 1 0 30.852 30.85a.837.837 0 1 0-1.185-1.183 12.5 12.5 0 1 1 1.15-16.334h-1.65a.833.833 0 0 0 0 1.667H32.5a.833.833 0 0 0 .833-.833v-3.334A.833.833 0 0 0 32.5 10Z"/><path fill="#A098AE" d="M29.167 16.667a.834.834 0 0 0-.834.833v.907A5.846 5.846 0 0 0 23.448 23a1.669 1.669 0 0 0 1.637 2h8.167a1.666 1.666 0 0 0 1.636-2A5.846 5.846 0 0 0 30 18.407V17.5a.833.833 0 0 0-.833-.833Z"/></svg>