<svg xmlns="http://www.w3.org/2000/svg" width="30" height="30" fill="none"><path fill="#A098AE" d="M27.32 13.202a5.442 5.442 0 0 0-.526-3.691c.173-1.399-.236-2.846-1.016-3.925C25.722 2.31 23.678 0 19.16 0h-1.302C11.788 0 9.902 2.345 7.5 2.345h-.635a1.867 1.867 0 0 0-1.24-.469h-3.75C.839 1.875 0 2.715 0 3.75v14.063c0 1.035.84 1.875 1.875 1.875h3.75c.694 0 1.3-.378 1.624-.938h.413c1.122.993 2.696 3.554 4.029 4.887.8.8.595 6.363 4.204 6.363 3.374 0 5.582-1.871 5.582-6.137 0-1.078-.23-1.976-.518-2.726h2.137c2.848 0 5.029-2.436 5.029-5.015a5.54 5.54 0 0 0-.805-2.92ZM3.75 17.344a1.406 1.406 0 1 1 0-2.813 1.406 1.406 0 0 1 0 2.813Zm19.346.98h-6.093c0 2.216 1.662 3.244 1.662 5.54 0 1.391 0 3.323-2.77 3.323-1.108-1.108-.554-3.877-2.216-5.539-1.556-1.557-3.877-5.71-5.54-5.71H7.5V5.028c3.141 0 5.86-2.216 10.057-2.216h2.216c2.08 0 3.564 1.003 3.113 3.861.89.479 1.552 2.136.816 3.374 1.265 1.194 1.096 2.992.306 3.845.553 0 1.31 1.108 1.305 2.215-.006 1.108-.98 2.216-2.216 2.216Z"/></svg>