<svg xmlns="http://www.w3.org/2000/svg" width="29" height="30" fill="none"><path fill="#A098AE" d="M27.32 16.798a5.54 5.54 0 0 0 .805-2.92c0-2.58-2.18-5.015-5.029-5.015H20.96c.288-.75.518-1.648.518-2.726C21.477 1.87 19.27 0 15.895 0c-3.61 0-3.404 5.562-4.204 6.363-1.333 1.333-2.908 3.894-4.03 4.887H1.876C.839 11.25 0 12.09 0 13.125v14.063c0 1.035.84 1.875 1.875 1.875h3.75c.873 0 1.606-.597 1.815-1.404 2.608.059 4.398 2.34 10.418 2.34L19.16 30c4.519 0 6.562-2.31 6.618-5.586.78-1.08 1.19-2.526 1.016-3.925.577-1.081.8-2.364.526-3.69Zm-3.618 3.154c.736 1.238.074 2.895-.817 3.374.452 2.858-1.031 3.86-3.112 3.86h-2.216c-4.198 0-6.916-2.215-10.057-2.215V14.062h.64c1.662 0 3.983-4.153 5.54-5.71 1.661-1.662 1.107-4.431 2.215-5.54 2.77 0 2.77 1.933 2.77 3.325 0 2.295-1.662 3.323-1.662 5.539h6.093c1.237 0 2.211 1.108 2.216 2.216.006 1.107-.75 2.215-1.304 2.215.79.853.959 2.651-.306 3.845Zm-18.546 5.36a1.406 1.406 0 1 1-2.812 0 1.406 1.406 0 0 1 2.812 0Z"/></svg>