<svg xmlns="http://www.w3.org/2000/svg" width="40" height="40" fill="none"><path fill="#fff" d="M8.333 30.833c0 2.864 6.48 4.167 12.5 4.167s12.5-1.303 12.5-4.167c0-2.273-3.935-3.3-6.77-3.743l1.937-1.923a10.833 10.833 0 1 0-15.32 0l1.93 1.93c-2.842.436-6.777 1.463-6.777 3.736Zm14.167-17.5a.833.833 0 0 1 1.333-.666 9.166 9.166 0 0 1 3.632 6.546 1.655 1.655 0 0 1-1.253 1.76l-2.045.512v1.848a.833.833 0 1 1-1.667 0v-10ZM15 15v-1.667a.833.833 0 0 1 1.667 0V15a1.641 1.641 0 0 0 .833 1.41v-3.077a.833.833 0 0 1 1.667 0v3.077A1.642 1.642 0 0 0 20 15v-1.667a.833.833 0 0 1 1.667 0V15a3.334 3.334 0 0 1-2.5 3.215v5.118a.833.833 0 1 1-1.667 0v-5.118A3.333 3.333 0 0 1 15 15Zm1.59 13.577 2.475 2.476a2.499 2.499 0 0 0 3.537 0l2.475-2.476c4.58.53 6.59 1.736 6.59 2.256 0 .747-3.685 2.5-10.834 2.5-7.148 0-10.833-1.753-10.833-2.5 0-.52 2.01-1.726 6.59-2.256Z"/></svg>