<svg width="113" height="60" viewBox="0 0 113 60" fill="none" xmlns="http://www.w3.org/2000/svg">
<path fill-rule="evenodd" clip-rule="evenodd" d="M73.1146 0H66.4689V6.66477H59.8244V13.3296H73.1146V0ZM66.4697 13.3299H59.8244V19.9947H66.4697V13.3299ZM59.8244 20.0001H66.4697V26.6649H59.8244V20.0001ZM59.8198 19.9994H53.1741V33.3293H59.8198V19.9994ZM59.8198 33.3297H53.1741V39.9945H59.8198V33.3297ZM46.5245 33.3297H53.1702V39.9945H46.5245V33.3297ZM53.1702 39.9995H46.5245V46.6643H39.8807V59.9942H46.5261V53.3294H53.1702V39.9995ZM86.4122 0H79.7669V6.66477H86.4107V13.3299H93.056V6.66477H86.4122V0ZM93.0633 13.3303H99.709V19.9955H93.0633V13.3303ZM106.356 20.0001H99.7101V26.6649H106.354V33.3301H113V26.6649H106.356V20.0001ZM106.356 33.3301H99.7101V39.9952H106.356V33.3301ZM93.0633 39.9995H99.709V46.6646H93.0633V39.9995ZM93.056 46.6646H86.4107V53.3294H93.056V46.6646ZM79.7665 53.3302H86.4122V59.9954H79.7665V53.3302ZM26.5917 6.66477H33.2374V0H26.5917V6.66477ZM19.9413 13.3303H26.587V6.66555H19.9413V13.3303ZM19.9436 20.0001H13.2999V26.6649H6.65417V20.0001H13.2979V13.335H19.9436V20.0001ZM6.6457 33.3301H0V26.6653H6.6457V33.3301ZM13.2979 39.9995H6.65417V33.3347H13.2999V39.9995H19.9436V46.6646H13.2979V39.9995ZM19.9413 53.3306H26.587V46.6658H19.9413V53.3306ZM33.2374 60H26.5917V53.3352H33.2374V60Z" fill="white" fill-opacity="0.09"/>
</svg>
