<svg width="80" height="81" viewBox="0 0 80 81" fill="none" xmlns="http://www.w3.org/2000/svg">
<g clip-path="url(#clip0_2901_1100)">
<g clip-path="url(#clip1_2901_1100)">
<mask id="mask0_2901_1100" style="mask-type:luminance" maskUnits="userSpaceOnUse" x="0" y="0" width="81" height="81">
<path d="M80.01 0.320068H0V80.3301H80.01V0.320068Z" fill="white"/>
</mask>
<g mask="url(#mask0_2901_1100)">
<path d="M75.5101 17.0149L71.5281 17.3985L76.0779 64.6258L80.06 64.2421L75.5101 17.0149Z" fill="white" fill-opacity="0.81"/>
<path d="M76.0788 64.6243L68.1943 65.3838L68.5703 69.2863L76.4547 68.5267L76.0788 64.6243Z" fill="white" fill-opacity="0.81"/>
<path d="M67.8174 61.4814L59.9329 62.241L60.3165 66.2231L68.201 65.4635L67.8174 61.4814Z" fill="white" fill-opacity="0.81"/>
<path d="M59.6278 58.2537L47.7612 59.3968L48.1372 63.2993L59.9241 62.1638L59.5481 58.2613L59.6278 58.2537Z" fill="white" fill-opacity="0.81"/>
<path d="M61.6353 38.2068L49.8484 39.3423L50.2243 43.2447L62.0112 42.1092L61.6353 38.2068Z" fill="white" fill-opacity="0.81"/>
<path d="M60.4995 26.417L48.7126 27.5525L49.0886 31.455L60.8755 30.3194L60.4995 26.417Z" fill="white" fill-opacity="0.81"/>
<path d="M59.3572 14.551L47.5703 15.6866L47.9463 19.589L59.7332 18.4535L59.3572 14.551Z" fill="white" fill-opacity="0.81"/>
<path d="M62.5065 6.37036L42.8352 8.26549L43.2112 12.1679L62.8825 10.2728L62.5065 6.37036Z" fill="white" fill-opacity="0.81"/>
<path d="M49.0887 31.4551L45.1863 31.831L45.57 35.8131L49.4723 35.4372L49.0887 31.4551Z" fill="white" fill-opacity="0.81"/>
<path d="M47.9549 19.6687L44.0525 20.0447L44.4362 24.0268L48.3385 23.6508L47.9549 19.6687Z" fill="white" fill-opacity="0.81"/>
<path d="M43.211 12.1672L39.229 12.5508L39.6126 16.5329L43.5946 16.1492L43.211 12.1672Z" fill="white" fill-opacity="0.81"/>
<path d="M48.1475 63.3765L36.3606 64.512L36.7442 68.4941L48.5311 67.3586L48.1475 63.3765Z" fill="white" fill-opacity="0.81"/>
<path d="M35.3301 12.9285L31.4277 13.3044L31.8113 17.2864L35.7138 16.9105L35.3301 12.9285Z" fill="white" fill-opacity="0.81"/>
<path d="M35.9754 60.5317L24.1089 61.6749L24.4848 65.5773L36.3514 64.4341L35.9754 60.5317Z" fill="white" fill-opacity="0.81"/>
<path d="M33.3227 32.9753L29.3406 33.359L29.7242 37.341L33.7063 36.9574L33.3227 32.9753Z" fill="white" fill-opacity="0.81"/>
<path d="M32.1852 21.189L28.2031 21.5726L28.5867 25.5547L32.5688 25.1711L32.1852 21.189Z" fill="white" fill-opacity="0.81"/>
<path d="M30.0984 41.2419L18.3115 42.3775L18.6875 46.2799L30.4744 45.1443L30.0984 41.2419Z" fill="white" fill-opacity="0.81"/>
<path d="M28.9627 29.4558L17.1758 30.5913L17.5517 34.4938L29.3386 33.3582L28.9627 29.4558Z" fill="white" fill-opacity="0.81"/>
<path d="M27.8203 17.5896L16.0334 18.7251L16.4094 22.6276L28.1963 21.492L27.8203 17.5896Z" fill="white" fill-opacity="0.81"/>
<path d="M31.0496 9.4021L11.3782 11.2973L11.7541 15.1996L31.4256 13.3045L31.0496 9.4021Z" fill="white" fill-opacity="0.81"/>
<path d="M24.4925 65.6555L16.6079 66.4152L16.9916 70.3972L24.8761 69.6376L24.4925 65.6555Z" fill="white" fill-opacity="0.81"/>
<path d="M35.2147 52.6455L34.8388 48.7431L22.9722 49.8862L23.3482 53.7887L15.4637 54.5483L11.6734 15.2054L7.69135 15.5891L8.07498 19.5711L4.2522 19.9395L4.62816 23.8419L8.53058 23.4659L12.3209 62.8087L24.1078 61.6732L23.7318 57.7708L35.5983 56.6275L35.9743 60.53L47.7612 59.3944L47.3852 55.492L59.1721 54.3565L59.5481 58.2589L71.335 57.1233L67.5447 17.7805L71.5268 17.3969L71.1509 13.4945L67.2484 13.8704L66.8648 9.88843L62.9624 10.2644L66.7526 49.6072L58.8682 50.3667L58.4922 46.4643L46.6257 47.6075L47.0016 51.5099L43.0195 51.8936L39.6052 16.4532L35.7028 16.8291L39.1171 52.2695L35.2147 52.6455Z" fill="white" fill-opacity="0.81"/>
<path d="M17.0628 70.3123L9.17822 71.0718L9.55418 74.9743L17.4387 74.2147L17.0628 70.3123Z" fill="white" fill-opacity="0.81"/>
<path d="M4.62977 23.8423L0.647705 24.2259L5.19755 71.4532L9.1796 71.0695L4.62977 23.8423Z" fill="white" fill-opacity="0.81"/>
</g>
</g>
</g>
<defs>
<clipPath id="clip0_2901_1100">
<rect width="80" height="80" fill="white" transform="translate(0 0.320068)"/>
</clipPath>
<clipPath id="clip1_2901_1100">
<rect width="80.01" height="80.01" fill="white" transform="translate(0 0.320068)"/>
</clipPath>
</defs>
</svg>
