<svg width="107" height="107" viewBox="0 0 107 107" fill="none" xmlns="http://www.w3.org/2000/svg">
<path d="M70.1888 3.55984L12.3863 20.1699C5.54552 22.1357 1.59356 29.2748 3.55931 36.1155L20.1694 93.918C22.1352 100.759 29.2742 104.711 36.115 102.745L93.9175 86.1349C100.758 84.1691 104.71 77.0301 102.744 70.1893L86.1344 12.3868C84.1686 5.54605 77.0295 1.59409 70.1888 3.55984Z" fill="#2AE881"/>
<path d="M62.839 62.9905L62.143 60.5684L59.7208 61.2644L60.4168 63.6865L48.3627 67.1504L47.6666 64.7283L45.2446 65.4243L43.1565 58.158L45.5787 57.462L44.8826 55.0399L56.9368 51.576L57.6328 53.9981L60.0549 53.3021L59.3589 50.88L76.2576 46.0241L76.9535 48.4461L79.3757 47.7501L77.9831 42.9059L68.3513 45.6738L67.6715 43.308L65.2494 44.004L65.9454 46.4262L51.4691 50.586L50.7731 48.164L48.351 48.86L47.655 46.4379L50.077 45.7418L49.381 43.3198L63.9137 39.1436L64.6097 41.5658L66.9754 40.886L64.8875 33.6196L62.4653 34.3156L63.1613 36.7378L48.685 40.8976L47.989 38.4756L45.5669 39.1716L46.2629 41.5936L26.9424 47.1456L27.6384 49.5677L25.2163 50.2637L27.3044 57.5301L29.7265 56.834L30.4225 59.2561L32.8446 58.5601L33.5406 60.9822L35.9627 60.2862L35.2667 57.8641L40.1109 56.4721L40.8069 58.8942L38.3848 59.5902L40.4728 66.8565L42.895 66.1605L43.5748 68.5263L38.7306 69.9183L38.0346 67.4962L35.6125 68.1922L36.3085 70.6143L33.8864 71.3103L34.5824 73.7323L32.1603 74.4282L34.2483 81.6946L36.6704 80.9987L37.3664 83.4209L85.6956 69.5329L84.3037 64.6887L81.8816 65.3847L82.5775 67.8069L63.2573 73.3586L62.5613 70.9367L60.1391 71.6324L59.4431 69.2106L61.8653 68.5145L61.1692 66.0924L80.4897 60.5405L81.1856 62.9626L83.6078 62.2666L81.52 55.0003L79.0979 55.6963L79.7938 58.1184L62.839 62.9905ZM36.2404 52.34L31.3962 53.7321L30.7002 51.31L35.5444 49.918L36.2404 52.34ZM54.5989 70.6026L52.1768 71.2986L52.8729 73.7209L55.2949 73.0249L55.991 75.4471L53.5688 76.143L52.8729 73.7209L50.4507 74.4168L49.7547 71.9946L52.1768 71.2986L51.4808 68.8765L53.9029 68.1805L54.5989 70.6026Z" fill="black"/>
<path d="M77.0093 48.4307L74.5872 49.1267L76.6749 56.393L79.0971 55.697L77.0093 48.4307Z" fill="black"/>
<path d="M81.1877 62.9644L64.2893 67.8203L64.9853 70.2424L81.8836 65.3865L81.1877 62.9644Z" fill="black"/>
<path d="M73.5599 54.6685L63.8713 57.4525L64.5673 59.8747L74.1993 57.1068L73.5033 54.6847L73.5599 54.6685Z" fill="black"/>
<path d="M72.1666 49.8218L62.4785 52.6058L63.1745 55.028L72.8066 52.2601L72.1107 49.838L72.1666 49.8218Z" fill="black"/>
<path d="M64.5537 41.585L52.4995 45.0488L53.1955 47.471L65.2497 44.0071L64.5537 41.585Z" fill="black"/>
<path d="M61.7681 31.8943L49.7139 35.3582L50.4099 37.7802L62.4641 34.3164L61.7681 31.8943Z" fill="black"/>
<path d="M57.6892 53.9822L55.2671 54.6782L57.3552 61.9445L59.7772 61.2485L57.6892 53.9822Z" fill="black"/>
<path d="M44.8728 36.75L42.4507 37.446L43.1467 39.8681L45.5688 39.1721L44.8728 36.75Z" fill="black"/>
<path d="M32.7602 40.231L27.916 41.623L28.6121 44.0451L33.4563 42.6531L32.7602 40.231Z" fill="black"/>
<path d="M44.1756 34.3284L44.8716 36.7504L47.2938 36.0544L46.5977 33.6324L61.1304 29.4563L61.8264 31.8784L64.1922 31.1985L62.8163 26.4106L24.1753 37.5145L24.8713 39.9366L44.1918 34.3847L44.1756 34.3284Z" fill="black"/>
<path d="M33.5249 60.9265L31.1028 61.6226L33.1908 68.8889L35.6129 68.1929L33.5249 60.9265Z" fill="black"/>
<path d="M24.855 39.8796L22.4329 40.5756L24.5209 47.8419L26.9431 47.1459L24.855 39.8796Z" fill="black"/>
</svg>
