<svg width="150" height="150" viewBox="0 0 150 150" fill="none" xmlns="http://www.w3.org/2000/svg">
<path d="M50.917 57.8042V66.8797H60.0801V75.9992H69.2868V66.9673H78.45V57.7606H87.6572V48.6523H105.994V66.8797H96.9295V76.032H87.7664V85.2387H78.5596V94.3911H69.3529V103.565H60.1898V94.4783H50.9826V85.3264H41.7759V76.1197H32.6676V57.8042H50.9282H50.917ZM5.91699 94.8519H20.5964V91.8153H5.91699V94.8519Z" fill="#FF5F00"/>
<path d="M14.7763 100.675V85.9956H11.7402V100.675H14.7763ZM133.978 43.8105H131.458V48.9077H133.978V43.8105ZM133.978 51.4516H131.458V56.5488H133.978V51.4516ZM126.349 48.9348V51.4544H131.446V48.9348H126.349ZM133.99 48.9348V51.4544H139.087V48.9348H133.99ZM131.455 58.8306V61.3506H133.977V58.8306H131.455ZM131.455 38.5708V41.0903H133.977V38.5703L131.455 38.5708ZM121.301 48.917V51.437H123.823V48.917H121.301ZM141.561 48.9653V51.4853H144.083V48.9653H141.561ZM121.571 87.7427H125.682V91.8541H121.571V87.7427Z" fill="#FF5F00"/>
</svg>
