<svg width="21" height="13" viewBox="0 0 21 13" fill="none" xmlns="http://www.w3.org/2000/svg">
<path fill-rule="evenodd" clip-rule="evenodd" d="M14.0667 2.33007C14.2279 2.13093 14.3035 1.8759 14.2767 1.62106C14.25 1.36622 14.123 1.13247 13.9239 0.971202C13.7248 0.809936 13.4697 0.734377 13.2149 0.761151C12.9601 0.787925 12.7263 0.914831 12.565 1.11396L4.8932 10.5855L1.76278 7.47588C1.58106 7.29527 1.33502 7.19424 1.07882 7.19502C0.822608 7.1958 0.577214 7.29833 0.396601 7.48005C0.215988 7.66177 0.114945 7.90779 0.115727 8.16399C0.116509 8.4202 0.219049 8.66561 0.400767 8.84622L4.28982 12.7092C4.38565 12.8045 4.50043 12.8786 4.6267 12.9268C4.75297 12.9749 4.88794 12.9961 5.02289 12.9888C5.15783 12.9815 5.28974 12.946 5.41011 12.8846C5.53047 12.8231 5.63659 12.7371 5.72164 12.6321L14.0667 2.33007ZM20.4828 2.35716C20.6512 2.16411 20.7361 1.91206 20.7187 1.65644C20.7013 1.40082 20.5831 1.16257 20.39 0.994116C20.2944 0.910706 20.1833 0.846948 20.0631 0.806469C19.9429 0.765989 19.8159 0.749581 19.6893 0.758193C19.4337 0.775586 19.1954 0.893816 19.027 1.08687L10.7112 10.6178L10.1286 10.0467C9.94435 9.87483 9.70023 9.78174 9.44831 9.78732C9.19638 9.7929 8.95659 9.89669 8.78012 10.0766C8.60365 10.2564 8.50444 10.4982 8.50367 10.7501C8.50289 11.0021 8.60062 11.2444 8.77599 11.4254L10.0901 12.7134C10.1838 12.8057 10.2955 12.8779 10.4182 12.9255C10.541 12.973 10.6721 12.9949 10.8036 12.9898C10.9352 12.9847 11.0642 12.9528 11.1829 12.8959C11.3016 12.8391 11.4074 12.7585 11.4937 12.6592L20.4828 2.35716Z" fill="#2AE881"/>
</svg>
