<svg width="150" height="150" viewBox="0 0 150 150" fill="none" xmlns="http://www.w3.org/2000/svg">
<path d="M54.3636 106.59V98.2524H70.611V90.0704H62.5944V81.9273H46.1816V73.6965H54.2957V57.4688H46.2107V73.7255H38.1064V49.2868H111.433V73.7255H103.348V57.459H95.2733V73.6965H103.378V81.8495H87.0529V89.9926H78.9289V98.1746H95.1955V106.599H54.3538L54.3636 106.59ZM126.965 49.5268H141.645V46.4902H126.965V49.5268Z" fill="#98D8FD"/>
<path d="M135.825 55.3503V40.6709H132.788V55.3503H135.825ZM21.0314 89.2179H18.5119V94.3151H21.0314V89.2179ZM21.0314 96.859H18.5119V101.956H21.0314V96.859ZM13.4025 94.3418V96.8618H18.4997V94.3418H13.4025ZM21.0436 94.3418V96.8618H26.1408V94.3418H21.0436ZM18.509 104.238V106.758H21.0309V104.238H18.509ZM18.509 83.9778V86.4978H21.0309V83.9778H18.509ZM8.35498 94.3245V96.8445H10.8769V94.3245H8.35498ZM28.6153 94.3728V96.8928H31.1372V94.3728H28.6153ZM128.001 85.1H132.112V89.2114H128.001V85.1ZM22.1906 42.7212H26.302V46.8326H22.1906V42.7212Z" fill="#98D8FD"/>
</svg>
