<svg width="150" height="150" viewBox="0 0 150 150" fill="none" xmlns="http://www.w3.org/2000/svg">
<path d="M106.371 48.8654V57.0151H114.472V73.3041H106.41V81.444H98.2313V89.6227H90.0914V97.8015H81.9127V105.893H73.7729V97.8793H65.5941V89.7005H57.4547V81.5218H49.276V73.382H41.1455V57.054H49.2272V48.8654H73.7246V56.9466H81.8935V48.8654H106.391H106.371ZM130.09 51.8237H144.769V48.7871H130.09V51.8237Z" fill="#FF87FF"/>
<path d="M138.949 57.6471V42.9678H135.913V57.6471H138.949ZM17.9071 87.3636H15.3876V92.4607H17.9071V87.3636ZM17.9071 95.0046H15.3876V100.102H17.9071V95.0046ZM10.2782 92.4879V95.0075H15.3754V92.4879H10.2782ZM17.9193 92.4879V95.0075H23.0165V92.4879H17.9193ZM15.3848 102.384V104.904H17.9067V102.384H15.3848ZM15.3848 82.1239V84.6434H17.9067V82.1239H15.3848ZM5.2312 92.4701V94.9901H7.75308V92.4701H5.2312ZM25.4906 92.5184V95.0384H28.0124V92.5184H25.4906ZM127.181 82.1553H131.293V86.2667H127.181V82.1553ZM19.5398 55.6348H23.6512V59.7462H19.5398V55.6348Z" fill="#FF87FF"/>
</svg>
