<svg width="90" height="66" viewBox="0 0 90 66" fill="none" xmlns="http://www.w3.org/2000/svg">
<path d="M4.26499 56.5691H85.6869V60.8441H89.99V52.2941H81.4119V5.12852H77.1087V52.2941H72.8337V47.991H68.5587V52.2941H42.8244V47.991H38.5494V52.2941H34.2744V5.12852H77.1087V0.853516H12.8431V5.12852H29.9712V22.2848H12.8431V5.12852H8.53999V52.2941H-0.0100098V60.8441H4.26499V56.5691ZM12.8431 30.8629H29.9712V47.991H12.8431V30.8629Z" fill="#FF5F00"/>
<path d="M85.6868 60.8438H4.26489V65.1469H85.6868V60.8438Z" fill="#FF5F00"/>
<path d="M68.5588 43.7158H59.9807V47.9908H68.5588V43.7158Z" fill="#FF5F00"/>
<path d="M64.2557 35.1377H59.9807V39.4127H64.2557V35.1377Z" fill="#FF5F00"/>
<path d="M59.9807 39.4131H51.4026V43.7162H59.9807V39.4131Z" fill="#FF5F00"/>
<path d="M51.4026 43.7158H42.8245V47.9908H51.4026V43.7158Z" fill="#FF5F00"/>
<path d="M51.4024 35.1377H47.1274V39.4127H51.4024V35.1377Z" fill="#FF5F00"/>
<path d="M64.2557 26.5602V35.1383H68.5588V22.2852H64.2557V17.982H59.9807V13.707H51.4026V17.982H47.1276V22.2852H42.8245V35.1383H47.1276V26.5602H64.2557Z" fill="#FF5F00"/>
<path d="M25.6963 39.4131H17.1182V43.7162H25.6963V39.4131Z" fill="#FF5F00"/>
<path d="M25.6963 13.707H17.1182V17.982H25.6963V13.707Z" fill="#FF5F00"/>
</svg>
