<svg width="50" height="56" viewBox="0 0 50 56" fill="none" xmlns="http://www.w3.org/2000/svg">
<path d="M50 39.4816H42.1071V36.8391H44.7323V34.2139H5.2677V36.8391H7.90155V39.4816H0V55.2674H50V39.4816ZM10.5181 36.8391H39.4646V39.4816H10.5181V36.8391ZM47.3748 52.6422H2.62522V42.1068H47.3748V52.6422Z" fill="#000001"/>
<path d="M47.3747 2.62402H44.7322V34.213H47.3747V2.62402Z" fill="#000001"/>
<path d="M36.8395 50.0011H39.4647V47.3759H42.1072V44.7334H28.9465V47.3759H36.8395V50.0011Z" fill="#000001"/>
<path d="M34.2143 10.5352H31.5718V13.1604H34.2143V10.5352Z" fill="#000001"/>
<path d="M18.4109 10.5352H15.7856V13.1604H18.4109V10.5352Z" fill="#000001"/>
<path d="M34.2144 15.7863H31.5719V13.1611H18.4113V15.7863H15.7861V18.4288H13.1609V26.3218H15.7861V21.0541H18.4113V26.3218H21.0538V23.6793H28.9467V26.3218H31.5719V21.0541H34.2144V26.3218H36.8396V18.4288H34.2144V15.7863ZM23.679 18.4288H21.0538V15.7863H23.679V18.4288ZM28.9467 18.4288H26.3215V15.7863H28.9467V18.4288Z" fill="#000001"/>
<path d="M7.90137 31.5888H42.1155V5.26758H7.90137V31.5888ZM10.5179 7.89279H39.4644V28.9463H10.5179V7.89279Z" fill="#000001"/>
<path d="M10.5183 44.7334H7.89307V47.3759H10.5183V44.7334Z" fill="#000001"/>
<path d="M44.7324 0H5.26782V2.62522H44.7324V0Z" fill="#000001"/>
<path d="M5.26773 2.62402H2.62524V34.213H5.26773V2.62402Z" fill="#000001"/>
</svg>
