<svg width="50" height="63" viewBox="0 0 50 63" fill="none" xmlns="http://www.w3.org/2000/svg">
<path d="M49.9996 36.2754H47.0471V50.9801H49.9996V36.2754Z" fill="#000001"/>
<path d="M47.0477 50.98H44.1145V56.8464H47.0477V50.98Z" fill="#000001"/>
<path d="M47.0477 30.3901H44.1145V36.2759H47.0477V30.3901Z" fill="#000001"/>
<path d="M44.1144 27.457H41.1812V30.3903H44.1144V27.457Z" fill="#000001"/>
<path d="M44.1145 56.8467H38.2288V59.7992H44.1145V56.8467Z" fill="#000001"/>
<path d="M41.1813 24.5039H38.2288V27.4564H41.1813V24.5039Z" fill="#000001"/>
<path d="M38.2286 9.79897H41.1812V0.97998H35.2954V3.91321H38.2286V9.79897Z" fill="#000001"/>
<path d="M38.2286 21.5698H35.2954V24.5031H38.2286V21.5698Z" fill="#000001"/>
<path d="M38.2286 9.79834H35.2954V12.7509H38.2286V9.79834Z" fill="#000001"/>
<path d="M38.2287 59.7993H11.7717V62.7325H38.2287V59.7993Z" fill="#000001"/>
<path d="M17.6382 27.457V30.3903H14.705V33.3235H11.7717V48.0282H14.705V50.9808H17.6382V53.914H32.3429V50.9808H35.2955V48.0282H38.2287V33.3235H35.2955V30.3903H32.3429V27.457H17.6382ZM32.3429 45.095H29.4097V48.0282H26.4765V50.9808H23.5239V48.0282H20.5907V45.095H29.4097V42.1425H20.5907V39.2092H17.6382V36.276H20.5907V33.3235H23.5239V30.3903H26.4765V33.3235H29.4097V36.276H20.5907V39.2092H29.4097V42.1425H32.3429V45.095Z" fill="#000001"/>
<path d="M35.2955 18.6182H32.343V21.5707H35.2955V18.6182Z" fill="#000001"/>
<path d="M35.2955 12.7515H32.343V15.6847H35.2955V12.7515Z" fill="#000001"/>
<path d="M35.2955 3.91309H32.343V6.86561H35.2955V3.91309Z" fill="#000001"/>
<path d="M32.3429 6.86523H29.4097V9.79847H32.3429V6.86523Z" fill="#000001"/>
<path d="M29.4095 3.91309H26.4763V6.86561H29.4095V3.91309Z" fill="#000001"/>
<path d="M26.4762 0.97998H23.5237V3.91321H26.4762V0.97998Z" fill="#000001"/>
<path d="M32.3427 15.6846H17.6379V18.6178H32.3427V15.6846Z" fill="#000001"/>
<path d="M23.5236 3.91309H20.5903V6.86561H23.5236V3.91309Z" fill="#000001"/>
<path d="M20.5905 6.86523H17.6379V9.79847H20.5905V6.86523Z" fill="#000001"/>
<path d="M17.6383 18.6182H14.7051V21.5707H17.6383V18.6182Z" fill="#000001"/>
<path d="M17.6383 12.7515H14.7051V15.6847H17.6383V12.7515Z" fill="#000001"/>
<path d="M17.6383 3.91309H14.7051V6.86561H17.6383V3.91309Z" fill="#000001"/>
<path d="M14.705 21.5698H11.7717V24.5031H14.705V21.5698Z" fill="#000001"/>
<path d="M14.705 9.79834H11.7717V12.7509H14.705V9.79834Z" fill="#000001"/>
<path d="M11.7715 56.8467H5.88574V59.7992H11.7715V56.8467Z" fill="#000001"/>
<path d="M11.7716 24.5039H8.81909V27.4564H11.7716V24.5039Z" fill="#000001"/>
<path d="M14.7049 3.91321V0.97998H8.81909V9.79897H11.7716V3.91321H14.7049Z" fill="#000001"/>
<path d="M8.81897 27.457H5.88574V30.3903H8.81897V27.457Z" fill="#000001"/>
<path d="M5.88562 50.98H2.95239V56.8464H5.88562V50.98Z" fill="#000001"/>
<path d="M5.88562 30.3901H2.95239V36.2759H5.88562V30.3901Z" fill="#000001"/>
<path d="M2.95253 36.2754H0V50.9801H2.95253V36.2754Z" fill="#000001"/>
</svg>
