<svg width="35" height="46" viewBox="0 0 35 46" fill="none" xmlns="http://www.w3.org/2000/svg">
<path d="M10.9394 24.0605V26.2569H19.6822V24.0605H21.8786V26.2569H30.6214V24.0605H32.8179V39.3783H35V15.3177H32.8179V13.1356H30.6214V10.9391H28.4393V8.75699H21.8786V4.37842H19.6822V8.75699H13.1215V10.9391H10.9394V13.1356H8.7429V15.3177H6.56079V39.3783H8.7429V24.0605H10.9394ZM17.5001 13.1356H19.6822V10.9391H21.8786V13.1356H24.0607V17.4998H21.8786V19.6963H19.6822V17.4998H17.5001V13.1356Z" fill="#000001"/>
<path d="M32.818 39.3784H30.6216V41.5749H32.818V39.3784Z" fill="#000001"/>
<path d="M30.6216 32.8179H28.4395V37.1964H30.6216V32.8179Z" fill="#000001"/>
<path d="M30.6215 41.5747H26.2429V43.7568H30.6215V41.5747Z" fill="#000001"/>
<path d="M28.4394 37.1963H26.2429V39.3784H28.4394V37.1963Z" fill="#000001"/>
<path d="M26.2429 39.3784H21.8787V41.5749H26.2429V39.3784Z" fill="#000001"/>
<path d="M26.2425 43.7578H15.3032V45.9399H26.2425V43.7578Z" fill="#000001"/>
<path d="M19.6818 2.19678H15.3032V4.37889H19.6818V2.19678Z" fill="#000001"/>
<path d="M15.3037 41.5747H10.9395V43.7568H15.3037V41.5747Z" fill="#000001"/>
<path d="M15.3037 4.37842H10.9395V6.56053H15.3037V4.37842Z" fill="#000001"/>
<path d="M10.9394 39.3784H8.74292V41.5749H10.9394V39.3784Z" fill="#000001"/>
<path d="M10.9394 6.56152H8.74292V8.75799H10.9394V6.56152Z" fill="#000001"/>
<path d="M8.74282 8.75684H2.18213V10.9389H8.74282V8.75684Z" fill="#000001"/>
<path d="M6.56077 0H4.37866V2.19647H6.56077V0Z" fill="#000001"/>
<path d="M4.3786 2.19678H2.18213V4.37889H4.3786V2.19678Z" fill="#000001"/>
<path d="M2.18211 4.37842H0V8.75699H2.18211V4.37842Z" fill="#000001"/>
</svg>
