<svg width="58" height="69" viewBox="0 0 58 69" fill="none" xmlns="http://www.w3.org/2000/svg">
<path fill-rule="evenodd" clip-rule="evenodd" d="M38.5314 2.54977L12.5685 11.149L13.45 13.8105L10.7879 14.6923L0.13623 18.221L1.01815 20.8839L4.98755 32.8671L7.65047 31.9851L3.68142 20.0018L11.6701 17.3558L18.2846 37.3266L20.9475 36.4446L13.4512 13.8116L39.4131 5.21269L40.295 7.87543L46.9101 27.846L49.5726 26.9641L52.2357 26.0829L51.3538 23.42L48.6913 24.3019L42.9585 6.99324L50.9464 4.34757L54.9154 16.3305L52.2525 17.2124L53.1341 19.8744L50.4723 20.756L51.3543 23.4189L54.0171 22.5369L53.1355 19.875L55.7973 18.9934L54.9154 16.3305L57.5783 15.4488L53.6093 3.46556L52.7274 0.802734L42.0765 4.33042L39.4134 5.21171L38.5314 2.54977ZM40.9393 18.7434L37.6319 8.75771L34.9691 9.63963L38.2765 19.6254L40.9393 18.7434ZM8.53221 34.6471L11.195 33.7651L10.3131 31.1023L7.65047 31.9851L8.53221 34.6471ZM42.2621 22.7367L39.5993 23.6187L38.7173 20.9558L41.3802 20.0739L42.2621 22.7367ZM12.0763 36.4286L14.7393 35.5465L13.8572 32.8837L11.195 33.7651L12.0763 36.4286ZM24.4925 38.2271L21.8296 39.1091L20.9476 36.4462L23.6105 35.5643L24.4925 38.2271ZM47.7918 30.5087L45.1289 31.3907L44.2469 28.7278L46.9101 27.846L47.7918 30.5087ZM28.0361 40.0086L25.3731 40.8905L24.4912 38.2277L27.1541 37.3457L28.0361 40.0086ZM34.6347 68.851L37.2975 67.969L37.2973 67.9681L52.6091 62.8966L55.272 62.0148L52.4056 53.3605L49.7428 54.2425L51.7272 60.2337L36.4152 65.3052L34.4311 59.3147L31.7683 60.1967L34.6347 68.851ZM43.3491 34.9366L46.0116 34.0547L45.1296 31.3919L42.4667 32.2738L43.3483 34.9356L40.6859 35.8174L41.5678 38.4802L44.2307 37.5983L43.3491 34.9366ZM28.9185 42.6696L31.5814 41.7875L30.6994 39.1247L28.0366 40.0067L28.9185 42.6696ZM37.0938 58.4302L34.4309 59.3123L33.549 56.6493L36.2114 55.7676L31.5814 41.7887L34.2443 40.9067L38.8747 54.8867L36.2122 55.7686L37.0938 58.4302ZM47.0797 55.1229L49.7425 54.241L48.8605 51.5781L46.1977 52.4601L47.0797 55.1229ZM43.5349 53.3415L46.1977 52.4601L41.5678 38.4802L38.9046 39.3615L43.5349 53.3415ZM15.6212 38.21L18.284 37.328L17.402 34.6652L14.7393 35.5465L15.6212 38.21Z" fill="black"/>
</svg>
