<svg width="48" height="50" viewBox="0 0 48 50" fill="none" xmlns="http://www.w3.org/2000/svg">
    <path d="M47.8125 38.0938H45.4219V40.4688H47.8125V38.0938Z" fill="#000001" />
    <path d="M45.4219 35.7031H43.0469V38.0937H45.4219V35.7031Z" fill="#000001" />
    <path d="M45.4219 40.4688H43.0469V42.8594H45.4219V40.4688Z" fill="#000001" />
    <path d="M43.0469 33.3281H40.6562V35.7031H43.0469V33.3281Z" fill="#000001" />
    <path d="M43.0469 42.8594H40.6562V45.2344H43.0469V42.8594Z" fill="#000001" />
    <path d="M40.6563 30.9531H38.2812V33.3281H40.6563V30.9531Z" fill="#000001" />
    <path d="M40.6563 40.4688H38.2812V42.8594H40.6563V40.4688Z" fill="#000001" />
    <path d="M38.2812 28.5625H35.9062V30.9531H38.2812V28.5625Z" fill="#000001" />
    <path d="M38.2812 38.0938H35.9062V40.4688H38.2812V38.0938Z" fill="#000001" />
    <path d="M35.9063 26.1875H33.5156V28.5625H35.9063V26.1875Z" fill="#000001" />
    <path d="M35.9063 35.7031H33.5156V38.0937H35.9063V35.7031Z" fill="#000001" />
    <path d="M31.1406 33.3281V30.9531H28.7656V33.3281H31.125V35.7031H33.5156V33.3281H31.1406Z"
        fill="#000001" />
    <path
        d="M2.5625 2.375H0.1875V47.6094H2.5625V50H31.125V47.6094H33.5156V40.4688H31.125V45.2344H2.5625V4.75H9.70312V7.14063H23.9844V4.75H31.125V19.0469H33.5156V2.375H31.125V0H2.5625V2.375ZM16.8438 2.375H21.6094V4.75H16.8438V2.375ZM12.0781 2.375H14.4687V4.75H12.0781V2.375Z"
        fill="#000001" />
    <path d="M28.7656 28.5625H26.375V30.9531H28.7656V28.5625Z" fill="#000001" />
    <path d="M28.7656 11.9062H24V16.6562H28.7656V11.9062Z" fill="#000001" />
    <path
        d="M31.125 23.7969V26.1875H33.5156V23.7969H31.1406V21.4219H24V28.5625H26.375V23.7969H31.125Z"
        fill="#000001" />
    <path d="M19.2344 11.9062H14.4688V16.6562H19.2344V11.9062Z" fill="#000001" />
    <path
        d="M19.2344 38.0937V35.7031H21.6094V33.3281H19.2344V30.9531H16.8594V33.3281H14.4688V35.7031H16.8594V38.0937H19.2344Z"
        fill="#000001" />
    <path d="M19.2344 21.4219H14.4688V26.1875H19.2344V21.4219Z" fill="#000001" />
    <path d="M9.71875 11.9062H4.95312V16.6562H9.71875V11.9062Z" fill="#000001" />
    <path d="M9.71875 21.4219H4.95312V26.1875H9.71875V21.4219Z" fill="#000001" />
    <path d="M9.71875 30.9531H4.95312V35.7031H9.71875V30.9531Z" fill="#000001" />
</svg>