<svg width="32" height="32" viewBox="0 0 32 32" fill="none" xmlns="http://www.w3.org/2000/svg">
<path d="M32 3.0498H30.48V28.9498H32V3.0498Z" fill="#000001"/>
<path d="M30.4799 28.9502H28.95V30.4802H30.4799V28.9502Z" fill="#000001"/>
<path d="M30.4799 1.52002H28.95V3.05002H30.4799V1.52002Z" fill="#000001"/>
<path d="M28.9501 30.48H3.05005V32H28.9501V30.48Z" fill="#000001"/>
<path d="M27.4299 24.3799H25.9099V25.8999H24.3799V27.4299H25.9099V28.9499H27.4299V27.4299H28.9499V25.8999H27.4299V24.3799Z" fill="#000001"/>
<path d="M27.4299 3.0498H25.9099V4.5698H24.3799V6.0898H25.9099V7.6198H27.4299V6.0898H28.9499V4.5698H27.4299V3.0498Z" fill="#000001"/>
<path d="M21.3399 6.08982H19.8099V4.56982H12.1899V6.08982H10.6699V7.61982H9.1499V12.1898H12.1899V9.13982H13.7199V7.61982H16.7599V9.13982H18.2899V12.1898H16.7599V13.7098H15.2399V15.2398H13.7199V18.2798H18.2899V16.7598H19.8099V15.2398H21.3399V13.7098H22.8599V7.61982H21.3399V6.08982Z" fill="#000001"/>
<path d="M18.2899 19.8101H13.7199V21.3301H12.1899V25.9001H13.7199V27.4301H18.2899V25.9001H19.8099V21.3301H18.2899V19.8101Z" fill="#000001"/>
<path d="M6.10005 24.3799H4.57005V25.8999H3.05005V27.4299H4.57005V28.9499H6.10005V27.4299H7.62005V25.8999H6.10005V24.3799Z" fill="#000001"/>
<path d="M6.10005 3.0498H4.57005V4.5698H3.05005V6.0898H4.57005V7.6198H6.10005V6.0898H7.62005V4.5698H6.10005V3.0498Z" fill="#000001"/>
<path d="M28.9501 0H3.05005V1.52H28.9501V0Z" fill="#000001"/>
<path d="M3.05003 28.9502H1.53003V30.4802H3.05003V28.9502Z" fill="#000001"/>
<path d="M3.05003 1.52002H1.53003V3.05002H3.05003V1.52002Z" fill="#000001"/>
<path d="M1.53 3.0498H0V28.9498H1.53V3.0498Z" fill="#000001"/>
</svg>
