<svg width="50" height="50" viewBox="0 0 50 50" fill="none" xmlns="http://www.w3.org/2000/svg">
<path d="M42.8594 9.53125H40.4844V40.4844H42.8594V38.0937H50V35.7188H42.8594V30.9531H50V28.5781H42.8594V21.4375H50V19.0469H42.8594V14.2969H50V11.9062H42.8594V9.53125Z" fill="#000001"/>
<path d="M9.53125 40.4844V42.8594H11.9062V50H14.2813V42.8594H19.0469V50H21.4375V42.8594H28.5781V50H30.9531V42.8594H35.7188V50H38.0937V42.8594H40.4844V40.4844H9.53125Z" fill="#000001"/>
<path d="M35.7188 11.9062H14.2813V14.2969H11.9062V35.7188H14.2813V33.3438H19.0469V30.9531H23.8125V28.5781H26.1875V26.2031H28.5781V23.8125H30.9531V21.4375H33.3281V16.6719H35.7188V35.7188H38.0937V14.2969H35.7188V11.9062ZM21.4375 23.8125H16.6719V21.4375H21.4375V23.8125ZM28.5781 19.0469H16.6719V16.6719H28.5781V19.0469Z" fill="#000001"/>
<path d="M35.7188 35.7188H14.2812V38.0937H35.7188V35.7188Z" fill="#000001"/>
<path d="M33.3281 30.9531H30.9531V33.3438H33.3281V30.9531Z" fill="#000001"/>
<path d="M28.5781 30.9531H26.1875V33.3438H28.5781V30.9531Z" fill="#000001"/>
<path d="M40.4844 9.53125V7.15625H38.0937V0H35.7188V7.15625H30.9531V0H28.5781V7.15625H21.4375V0H19.0469V7.15625H14.2813V0H11.9062V7.15625H9.53125V9.53125H40.4844Z" fill="#000001"/>
<path d="M9.53125 9.53125H7.14063V11.9062H0V14.2969H7.14063V19.0469H0V21.4375H7.14063V28.5781H0V30.9531H7.14063V35.7188H0V38.0937H7.14063V40.4844H9.53125V9.53125Z" fill="#000001"/>
</svg>
