<svg width="30" height="58" viewBox="0 0 30 58" fill="none" xmlns="http://www.w3.org/2000/svg">
<path d="M5.45943 0V13.6396H2.73866V16.3783H0V51.8377H2.73866V19.099H27.2792V51.8377H30V16.3783H27.2792V13.6396H24.5585V0H5.45943ZM21.8198 13.6396H8.18019V2.73866H21.8198V13.6396Z" fill="#000001"/>
<path d="M27.2791 51.8379H24.5583V54.5587H27.2791V51.8379Z" fill="#000001"/>
<path d="M24.5585 54.5596H5.45947V57.2803H24.5585V54.5596Z" fill="#000001"/>
<path d="M21.8196 43.6396H19.0989V46.3783H21.8196V43.6396Z" fill="#000001"/>
<path d="M21.8196 38.1978H19.0989V40.9185H21.8196V38.1978Z" fill="#000001"/>
<path d="M19.099 5.45898H16.3604V10.9184H19.099V5.45898Z" fill="#000001"/>
<path d="M19.0994 46.3789H10.9192V49.0997H19.0994V46.3789Z" fill="#000001"/>
<path d="M13.64 5.45898H10.9192V10.9184H13.64V5.45898Z" fill="#000001"/>
<path d="M10.9188 43.6396H8.18018V46.3783H10.9188V43.6396Z" fill="#000001"/>
<path d="M10.9188 38.1978H8.18018V40.9185H10.9188V38.1978Z" fill="#000001"/>
<path d="M5.45953 51.8379H2.73877V54.5587H5.45953V51.8379Z" fill="#000001"/>
</svg>
