<svg width="86" height="87" viewBox="0 0 86 87" fill="none" xmlns="http://www.w3.org/2000/svg">
<path d="M85.8576 22.0693H81.5544V26.3443H85.8576V22.0693Z" fill="#B6B6D9"/>
<path d="M81.5545 26.3438H77.2795V30.6469H81.5545V26.3438Z" fill="#B6B6D9"/>
<path d="M81.5545 17.7939H77.2795V22.0689H81.5545V17.7939Z" fill="#B6B6D9"/>
<path d="M77.2794 22.0693H73.0044V26.3443H77.2794V22.0693Z" fill="#B6B6D9"/>
<path d="M73.0044 77.7848V73.4816H77.2794V69.2066H73.0044V64.9316H68.7013V69.2066H64.4263V73.4816H68.7013V77.7848H73.0044Z" fill="#B6B6D9"/>
<path d="M73.0045 34.9219H68.7014V43.5H73.0045V34.9219Z" fill="#B6B6D9"/>
<path d="M68.7013 43.5H64.4263V47.775H68.7013V43.5Z" fill="#B6B6D9"/>
<path d="M68.7013 9.21582H64.4263V13.4908H68.7013V9.21582Z" fill="#B6B6D9"/>
<path d="M64.4264 47.7754H60.1233V52.0785H64.4264V47.7754Z" fill="#B6B6D9"/>
<path d="M64.4264 13.4912H60.1233V17.7943H64.4264V13.4912Z" fill="#B6B6D9"/>
<path d="M60.1231 52.0781H55.8481V56.3531H60.1231V52.0781Z" fill="#B6B6D9"/>
<path d="M60.1231 17.7939H55.8481V22.0689H60.1231V17.7939Z" fill="#B6B6D9"/>
<path d="M55.8482 56.3535H51.5732V60.6285H55.8482V56.3535Z" fill="#B6B6D9"/>
<path d="M55.8482 22.0693H51.5732V26.3443H55.8482V22.0693Z" fill="#B6B6D9"/>
<path d="M51.5731 82.0596H47.27V86.3627H51.5731V82.0596Z" fill="#B6B6D9"/>
<path d="M51.5731 60.6279H47.27V64.9311H51.5731V60.6279Z" fill="#B6B6D9"/>
<path d="M47.2701 26.3438V30.6469H42.9951V34.9219H68.7014V30.6469H51.5732V26.3438H47.2701Z" fill="#B6B6D9"/>
<path d="M47.2701 64.9316H42.9951V69.2066H47.2701V64.9316Z" fill="#B6B6D9"/>
<path d="M68.7012 4.9127V9.21582H73.0043V0.637695H38.72V4.9127H68.7012Z" fill="#B6B6D9"/>
<path d="M42.995 69.2061H38.72V73.4811H42.995V69.2061Z" fill="#B6B6D9"/>
<path d="M38.7201 73.4814H34.417V77.7846H38.7201V73.4814Z" fill="#B6B6D9"/>
<path d="M38.7201 4.91309H34.417V9.21621H38.7201V4.91309Z" fill="#B6B6D9"/>
<path d="M34.4168 77.7842H30.1418V82.0592H34.4168V77.7842Z" fill="#B6B6D9"/>
<path d="M34.4169 43.5H8.71069V47.775H30.1419V56.3531H34.4169V43.5Z" fill="#B6B6D9"/>
<path d="M34.4168 9.21582H30.1418V13.4908H34.4168V9.21582Z" fill="#B6B6D9"/>
<path d="M30.142 82.0596H25.8389V86.3627H30.142V82.0596Z" fill="#B6B6D9"/>
<path d="M30.142 56.3535H25.8389V69.2066H30.142V56.3535Z" fill="#B6B6D9"/>
<path d="M30.142 13.4912H25.8389V17.7943H30.142V13.4912Z" fill="#B6B6D9"/>
<path d="M25.8387 69.2061H21.5637V82.0592H25.8387V69.2061Z" fill="#B6B6D9"/>
<path d="M25.8387 17.7939H21.5637V22.0689H25.8387V17.7939Z" fill="#B6B6D9"/>
<path d="M21.5638 22.0693H17.2888V26.3443H21.5638V22.0693Z" fill="#B6B6D9"/>
<path d="M17.2887 26.3438H12.9856V30.6469H17.2887V26.3438Z" fill="#B6B6D9"/>
<path d="M12.9857 60.6279H8.71069V64.9311H12.9857V60.6279Z" fill="#B6B6D9"/>
<path d="M12.9857 30.6475H8.71069V34.9225H12.9857V30.6475Z" fill="#B6B6D9"/>
<path d="M8.71079 0.637695V4.9127H4.43579V9.21582H8.71079V13.4908H12.9858V9.21582H17.2889V4.9127H12.9858V0.637695H8.71079Z" fill="#B6B6D9"/>
<path d="M8.71079 64.9316H4.43579V69.2066H8.71079V64.9316Z" fill="#B6B6D9"/>
<path d="M8.71079 56.3535H4.43579V60.6285H8.71079V56.3535Z" fill="#B6B6D9"/>
<path d="M8.71079 34.9219H4.43579V43.5H8.71079V34.9219Z" fill="#B6B6D9"/>
<path d="M4.43569 60.6279H0.132568V64.9311H4.43569V60.6279Z" fill="#B6B6D9"/>
</svg>
