<svg width="200" height="144" viewBox="0 0 200 144" fill="none" xmlns="http://www.w3.org/2000/svg">
<g clip-path="url(#clip0_813_680)">
<path d="M5.29565 143.228C5.29565 143.404 5.43669 143.545 5.61232 143.545H199.683C199.859 143.545 200 143.404 200 143.228C200 143.053 199.859 142.911 199.683 142.911H5.61232C5.43669 142.911 5.29565 143.053 5.29565 143.228Z" fill="#3F3D58"/>
<path d="M67.44 25.3204H5.19701C2.82331 25.3204 0.891357 23.3884 0.891357 21.0147C0.891357 18.641 2.82331 16.709 5.19701 16.709H67.44C69.8137 16.709 71.7457 18.641 71.7457 21.0147C71.7457 23.3884 69.8137 25.3204 67.44 25.3204ZM5.19701 17.2413C3.11603 17.2413 1.42358 18.9337 1.42358 21.0147C1.42358 23.0957 3.11603 24.7881 5.19701 24.7881H67.44C69.521 24.7881 71.2135 23.0957 71.2135 21.0147C71.2135 18.9337 69.521 17.2413 67.44 17.2413H5.19701Z" fill="#E2E3E4"/>
<path d="M67.44 75.7082H5.19701C2.89516 75.7082 1.02441 73.8374 1.02441 71.5356C1.02441 69.2337 2.89516 67.363 5.19701 67.363H67.44C69.7419 67.363 71.6126 69.2337 71.6126 71.5356C71.6126 73.8374 69.7419 75.7082 67.44 75.7082Z" fill="#6C63FF"/>
<path d="M47.0429 8.3452H4.1726C1.87075 8.3452 0 6.47445 0 4.1726C0 1.87075 1.87075 0 4.1726 0H47.0429C49.3447 0 51.2155 1.87075 51.2155 4.1726C51.2155 6.47445 49.3447 8.3452 47.0429 8.3452Z" fill="#E2E3E4"/>
<path d="M67.44 42.1598H5.19701C2.82331 42.1598 0.891357 40.2278 0.891357 37.8541C0.891357 35.4804 2.82331 33.5485 5.19701 33.5485H67.44C69.8137 33.5485 71.7457 35.4804 71.7457 37.8541C71.7457 40.2278 69.8137 42.1598 67.44 42.1598ZM5.19701 34.0807C3.11603 34.0807 1.42358 35.7731 1.42358 37.8541C1.42358 39.9351 3.11603 41.6275 5.19701 41.6275H67.44C69.521 41.6275 71.2135 39.9351 71.2135 37.8541C71.2135 35.7731 69.521 34.0807 67.44 34.0807H5.19701Z" fill="#E2E3E4"/>
<path d="M67.44 59.0018H5.19701C2.82331 59.0018 0.891357 57.0699 0.891357 54.6962C0.891357 52.3225 2.82331 50.3905 5.19701 50.3905H67.44C69.8137 50.3905 71.7457 52.3225 71.7457 54.6962C71.7457 57.0699 69.8137 59.0018 67.44 59.0018ZM5.19701 50.9227C3.11603 50.9227 1.42358 52.6152 1.42358 54.6962C1.42358 56.7771 3.11603 58.4696 5.19701 58.4696H67.44C69.521 58.4696 71.2135 56.7771 71.2135 54.6962C71.2135 52.6152 69.521 50.9227 67.44 50.9227H5.19701Z" fill="#E2E3E4"/>
<path d="M3.05749 13.6168H19.37C19.7585 13.6168 20.0752 13.9308 20.0752 14.322C20.0752 14.7105 19.7585 15.0272 19.37 15.0272H3.05749C2.66897 15.0272 2.35229 14.7132 2.35229 14.322C2.35229 13.9335 2.66897 13.6168 3.05749 13.6168Z" fill="#E2E3E4"/>
<path d="M3.05749 30.8554H19.37C19.7585 30.8554 20.0752 31.1694 20.0752 31.5579C20.0752 31.9465 19.7585 32.2631 19.37 32.2631H3.05749C2.66897 32.2631 2.35229 31.9491 2.35229 31.5606C2.35229 31.1721 2.66897 30.8554 3.05749 30.8554Z" fill="#E2E3E4"/>
<path d="M3.05749 48.0967H19.37C19.7585 48.0967 20.0752 48.4107 20.0752 48.8019C20.0752 49.1904 19.7585 49.5044 19.37 49.5044H3.05749C2.66897 49.5044 2.35229 49.1904 2.35229 48.7992C2.35229 48.4107 2.66897 48.0967 3.05749 48.0967Z" fill="#E2E3E4"/>
<path d="M118.972 35.1957L113.022 37.1543V28.5882H118.421L118.972 35.1957Z" fill="#9F616A"/>
<path d="M113.759 30.9592C117.034 30.9592 119.688 28.3048 119.688 25.0303C119.688 21.7558 117.034 19.1014 113.759 19.1014C110.485 19.1014 107.83 21.7558 107.83 25.0303C107.83 28.3048 110.485 30.9592 113.759 30.9592Z" fill="#9F616A"/>
<path d="M115.388 24.4422C114.395 24.4129 113.743 23.4097 113.357 22.4943C112.972 21.5788 112.575 20.5277 111.654 20.1498C110.901 19.8411 109.573 21.9301 108.98 21.3739C108.36 20.7938 108.964 17.8161 109.621 17.2812C110.279 16.7463 111.178 16.6425 112.024 16.6026C114.089 16.5068 116.168 16.6744 118.193 17.0976C119.446 17.3583 120.734 17.7522 121.639 18.657C122.783 19.8066 123.076 21.5389 123.158 23.1595C123.243 24.8174 123.148 26.5524 122.341 28.0027C121.535 29.453 119.848 30.5228 118.23 30.1529C118.068 29.2747 118.233 28.3726 118.296 27.4785C118.358 26.587 118.294 25.6237 117.748 24.9132C117.205 24.2027 116.04 23.9206 115.406 24.5513" fill="#2F2E43"/>
<path d="M122.682 26.4965C123.275 26.0628 123.986 25.6982 124.715 25.7887C125.503 25.8845 126.17 26.5338 126.373 27.3028C126.575 28.0719 126.349 28.9181 125.859 29.5461C125.372 30.1742 124.646 30.5893 123.879 30.7969C123.435 30.9166 122.948 30.9672 122.525 30.7862C121.902 30.5174 121.564 29.7218 121.809 29.0884" fill="#2F2E43"/>
<path d="M99.9933 82.2811C99.5968 84.229 100.323 86.0093 101.611 86.2568C102.899 86.5043 104.264 85.1231 104.658 83.1752C104.826 82.3982 104.799 81.5945 104.581 80.8281L109.485 50.2921L103.352 49.1371L100.983 80.1389C100.48 80.7669 100.142 81.5014 99.9933 82.2838V82.2811Z" fill="#9F616A"/>
<path d="M112.958 33.2238H108.772C105.813 33.6735 105.01 35.2516 104.336 38.1681C103.309 42.6175 101.997 48.5411 102.258 48.6289C102.676 48.7673 109.802 52.1203 113.435 51.3539L112.958 33.2238Z" fill="#E2E3E4"/>
<path d="M117.006 130.49H111.433V138.396H117.006V130.49Z" fill="#9F616A"/>
<path d="M106.007 143.18C105.422 143.18 104.9 143.167 104.507 143.13C103.027 142.994 101.614 141.9 100.903 141.262C100.584 140.974 100.483 140.517 100.648 140.123C100.768 139.841 101.005 139.628 101.3 139.545L105.212 138.428L111.545 134.154L111.617 134.282C111.644 134.329 112.266 135.45 112.474 136.206C112.554 136.493 112.532 136.732 112.413 136.919C112.33 137.046 112.213 137.121 112.12 137.164C112.234 137.283 112.594 137.528 113.701 137.704C115.316 137.959 115.657 136.285 115.67 136.216L115.681 136.16L115.728 136.128C116.498 135.633 116.971 135.407 117.134 135.455C117.235 135.484 117.405 135.538 117.865 140.096C117.911 140.24 118.233 141.288 118.014 142.292C117.778 143.383 113.009 143.007 112.053 142.922C112.027 142.925 108.456 143.18 106.01 143.18H106.007Z" fill="#2F2E43"/>
<path d="M132.873 124.278L128.145 127.227L132.328 133.935L137.056 130.986L132.873 124.278Z" fill="#9F616A"/>
<path d="M126.594 142.097C125.939 142.097 125.337 142.017 124.909 141.943C124.489 141.868 124.159 141.533 124.089 141.113C124.042 140.809 124.129 140.503 124.337 140.277L127.065 137.259L130.178 130.282L130.306 130.351C130.354 130.378 131.474 130.998 132.051 131.53C132.272 131.732 132.381 131.948 132.376 132.169C132.373 132.323 132.315 132.445 132.256 132.533C132.416 132.576 132.85 132.592 133.882 132.155C135.388 131.519 134.792 129.917 134.766 129.851L134.744 129.798L134.768 129.747C135.16 128.919 135.439 128.478 135.604 128.432C135.708 128.403 135.878 128.358 138.68 131.985C138.795 132.081 139.622 132.802 139.968 133.768C140.343 134.819 136.099 137.025 135.245 137.456C135.218 137.478 130.777 140.705 128.951 141.624C128.227 141.988 127.371 142.1 126.591 142.1L126.594 142.097Z" fill="#2F2E43"/>
<path d="M121.109 64.3746H105.507L104.091 78.8882L110.286 132.515H118.251L115.066 101.542L127.985 129.505L135.064 124.55L124.976 98.4446C124.976 98.4446 128.579 75.7029 125.747 70.0374C122.916 64.3746 121.109 64.3746 121.109 64.3746Z" fill="#2F2E43"/>
<path d="M128.871 65.2581H104.091L111.526 33.2238H122.322L128.871 65.2581Z" fill="#E2E3E4"/>
<path d="M131.102 82.2811C131.498 84.229 130.772 86.0093 129.484 86.2568C128.196 86.5043 126.83 85.1231 126.437 83.1752C126.269 82.3982 126.296 81.5945 126.514 80.8281L121.609 50.2921L127.743 49.1371L130.112 80.1389C130.615 80.7669 130.952 81.5014 131.102 82.2838V82.2811Z" fill="#9F616A"/>
<path d="M118.137 33.2238H122.323C125.282 33.6735 126.085 35.2516 126.759 38.1681C127.786 42.6175 129.098 48.5411 128.837 48.6289C128.419 48.7673 121.293 52.1203 117.66 51.3539L118.137 33.2238Z" fill="#E2E3E4"/>
</g>
<defs>
<clipPath id="clip0_813_680">
<rect width="200" height="143.545" fill="white"/>
</clipPath>
</defs>
</svg>
