<svg width="200" height="144" viewBox="0 0 200 144" fill="none" xmlns="http://www.w3.org/2000/svg">
<g clip-path="url(#clip0_813_884)">
<path d="M194.087 41.9612H84.6445C83.1039 41.9626 81.6269 42.5752 80.5375 43.6645C79.4482 44.7538 78.8356 46.2309 78.8342 47.7714V65.5079C78.8356 67.0484 79.4482 68.5255 80.5375 69.6148C81.6269 70.7041 83.1039 71.3167 84.6445 71.3181H194.087C195.628 71.3167 197.105 70.7041 198.194 69.6148C199.283 68.5255 199.896 67.0484 199.897 65.5079V47.7714C199.896 46.2309 199.283 44.7538 198.194 43.6645C197.105 42.5752 195.628 41.9626 194.087 41.9612Z" fill="#F2F2F2"/>
<path d="M43.8894 143.193H0.348328C0.255946 143.193 0.167342 143.156 0.102017 143.09C0.0366932 143.025 0 142.937 0 142.844C0 142.752 0.0366932 142.663 0.102017 142.598C0.167342 142.533 0.255946 142.496 0.348328 142.496H43.8894C43.9818 142.496 44.0704 142.533 44.1357 142.598C44.201 142.663 44.2377 142.752 44.2377 142.844C44.2377 142.937 44.201 143.025 44.1357 143.09C44.0704 143.156 43.9818 143.193 43.8894 143.193Z" fill="#3F3D56"/>
<path d="M37.4963 34.1287C37.0925 34.3836 36.7495 34.7239 36.4915 35.1257C36.2334 35.5275 36.0666 35.9809 36.0028 36.4542C35.939 36.9274 35.9797 37.4088 36.122 37.8646C36.2644 38.3204 36.505 38.7395 36.8268 39.0922L33.6614 45.8517L37.2999 48.7772L41.6361 39.1687C42.1929 38.5888 42.5176 37.8247 42.5487 37.0214C42.5798 36.218 42.3151 35.4312 41.8048 34.8099C41.2945 34.1887 40.5741 33.7762 39.78 33.6507C38.9859 33.5251 38.1734 33.6952 37.4963 34.1287Z" fill="#FFB8B8"/>
<path d="M19.306 36.8718C20.3078 36.27 21.5028 36.077 22.6431 36.3326C23.7834 36.5882 24.7816 37.2729 25.4306 38.2448L31.9077 47.943L34.1563 42.9858C34.2968 42.6763 34.5455 42.4287 34.8557 42.2898C35.1659 42.1508 35.5162 42.1301 35.8406 42.2314L39.2345 43.2916C39.4118 43.347 39.5763 43.4373 39.7182 43.5571C39.8601 43.677 39.9766 43.824 40.0609 43.9896C40.1451 44.1552 40.1954 44.3359 40.2088 44.5212C40.2222 44.7064 40.1984 44.8925 40.1388 45.0685L37.8156 51.9285C37.5217 52.7963 37.0307 53.5842 36.3811 54.2303C35.7315 54.8764 34.941 55.3631 34.0716 55.6522C33.2022 55.9414 32.2777 56.0251 31.3705 55.8968C30.4634 55.7686 29.5983 55.4318 28.8432 54.9129C28.4903 54.6704 28.1648 54.3904 27.8722 54.0779L18.3272 43.879C17.8636 43.3838 17.5168 42.7911 17.3119 42.1444C17.1071 41.4978 17.0495 40.8135 17.1433 40.1417C17.2372 39.4699 17.4801 38.8276 17.8543 38.2618C18.2285 37.696 18.7245 37.2211 19.306 36.8718Z" fill="#CCCCCC"/>
<path d="M40.2591 26.8509C40.4329 26.8552 40.5979 26.9284 40.7178 27.0544C40.8377 27.1804 40.9026 27.3488 40.8983 27.5227L40.8424 29.7738L40.9553 29.7841L40.9148 31.3131L40.8045 31.2993L40.6042 39.3639C40.5973 39.64 40.4903 39.9041 40.303 40.107C40.1157 40.3099 39.8611 40.4377 39.5865 40.4666L34.4584 41.0065C34.3336 41.0196 34.2074 41.0053 34.0886 40.9645C33.9699 40.9237 33.8615 40.8574 33.7711 40.7703C33.6807 40.6832 33.6104 40.5774 33.5653 40.4603C33.5201 40.3431 33.5011 40.2175 33.5095 40.0923L34.2873 28.6088C34.3036 28.3676 34.4015 28.1391 34.5649 27.961C34.7283 27.7828 34.9475 27.6655 35.1863 27.6284L40.1368 26.8593C40.1772 26.8527 40.2181 26.8499 40.2591 26.8509Z" fill="#3F3D56"/>
<path d="M36.2904 28.0461L38.8928 27.6418C38.9397 27.6346 38.9828 27.612 39.0156 27.5778C39.0483 27.5435 39.0689 27.4994 39.074 27.4523C39.0799 27.3989 39.1031 27.3489 39.1402 27.3101C39.1773 27.2713 39.2262 27.2458 39.2792 27.2375L39.8274 27.1524C39.9022 27.1408 39.9787 27.1457 40.0514 27.1668C40.1241 27.188 40.1912 27.2248 40.2481 27.2748C40.305 27.3247 40.3502 27.3865 40.3806 27.4558C40.411 27.5252 40.4258 27.6003 40.424 27.676L40.1423 39.3684C40.1388 39.5135 40.082 39.6522 39.9827 39.7581C39.8834 39.864 39.7487 39.9296 39.6041 39.9425L34.4798 40.398C34.4145 40.4039 34.3486 40.3955 34.2868 40.3735C34.2249 40.3516 34.1686 40.3165 34.1215 40.2707C34.0745 40.225 34.0378 40.1696 34.0142 40.1084C33.9905 40.0472 33.9803 39.9816 33.9842 39.9161L34.6756 28.5388C34.6858 28.3711 34.753 28.212 34.8661 28.0878C34.9792 27.9637 35.1314 27.8819 35.2973 27.8561L35.8752 27.7664C35.8964 27.8567 35.951 27.9357 36.0279 27.9876C36.1049 28.0395 36.1986 28.0604 36.2904 28.0461Z" fill="white"/>
<path d="M24.2165 138.964L28.1986 138.964L30.0924 123.604L24.2151 123.605L24.2165 138.964Z" fill="#FFB8B8"/>
<path d="M35.8787 142.661L23.3633 142.662L23.3629 137.827L31.0428 137.826C31.6778 137.826 32.3066 137.951 32.8932 138.194C33.4799 138.437 34.013 138.793 34.4621 139.242C34.9111 139.691 35.2674 140.224 35.5104 140.811C35.7535 141.397 35.8786 142.026 35.8787 142.661Z" fill="#2F2E41"/>
<path d="M11.9777 138.964L15.9598 138.964L17.8537 123.604L11.9763 123.605L11.9777 138.964Z" fill="#FFB8B8"/>
<path d="M23.6399 142.661L11.1245 142.662L11.1241 137.827L18.804 137.826C20.0864 137.826 21.3164 138.335 22.2233 139.242C23.1302 140.149 23.6398 141.379 23.6399 142.661Z" fill="#2F2E41"/>
<path d="M23.64 31.6515C28.365 31.6515 32.1953 27.8212 32.1953 23.0962C32.1953 18.3712 28.365 14.5409 23.64 14.5409C18.9151 14.5409 15.0847 18.3712 15.0847 23.0962C15.0847 27.8212 18.9151 31.6515 23.64 31.6515Z" fill="#FFB8B8"/>
<path d="M28.0431 45.9857C27.9732 43.7862 27.3539 41.6391 26.2418 39.7401C25.1297 37.8411 23.56 36.2506 21.6758 35.1136C19.4655 33.8112 17.0462 33.3033 15.1214 35.228C13.9657 36.4127 13.0402 37.8019 12.3919 39.3248C10.6115 43.4747 10.495 48.1503 12.0666 52.3837L16.6477 65.0399L27.2505 66.1885C27.4497 66.2101 27.6511 66.1885 27.8412 66.1251C28.0312 66.0618 28.2053 65.9582 28.3517 65.8214C28.4981 65.6847 28.6133 65.518 28.6894 65.3327C28.7655 65.1474 28.8008 64.9478 28.7928 64.7477L28.0431 45.9857Z" fill="#2F2E41"/>
<path d="M17.32 63.4813C17.32 63.4813 9.39853 66.4385 11.4696 78.9605C13.328 90.197 11.8511 127.493 11.5283 135.032C11.513 135.391 11.6373 135.743 11.8752 136.013C12.1132 136.282 12.4463 136.449 12.8047 136.479L17.4288 136.864C17.7909 136.894 18.1506 136.782 18.431 136.551C18.7113 136.319 18.8903 135.988 18.9296 135.627L21.3177 113.691C21.3271 113.605 21.3682 113.525 21.433 113.468C21.4978 113.411 21.5817 113.379 21.6683 113.38C21.7548 113.381 21.8379 113.415 21.9013 113.474C21.9647 113.533 22.0038 113.613 22.0111 113.699L23.7906 134.807C23.8206 135.162 23.9859 135.493 24.2524 135.73C24.5189 135.967 24.8664 136.093 25.2231 136.082L29.107 135.959C29.29 135.953 29.4701 135.912 29.637 135.836C29.8038 135.761 29.9542 135.653 30.0794 135.52C30.2047 135.386 30.3023 135.229 30.3669 135.058C30.4314 134.886 30.4615 134.704 30.4555 134.521L28.1676 64.9439L17.32 63.4813Z" fill="#2F2E41"/>
<path d="M25.357 22.5325C28.2183 23.706 31.8723 22.3352 33.2557 19.5693C34.6391 16.8034 33.5443 13.0574 30.8891 11.4718C28.2339 9.88622 24.4168 10.6989 22.6378 13.2286C21.1907 10.6215 17.3997 9.95686 14.7969 11.4116C12.194 12.8663 10.7762 15.9134 10.6081 18.8904C10.4399 21.8675 11.345 24.8003 12.4491 27.5701C14.2351 32.0505 19.9845 34.4629 24.4327 32.5983C22.3963 29.5653 22.7983 25.1269 25.357 22.5325Z" fill="#2F2E41"/>
<path d="M36.8871 35.1659C36.811 35.166 36.7368 35.1414 36.6759 35.0957L36.6721 35.0929L35.8767 34.4844C35.8399 34.4561 35.8089 34.4209 35.7857 34.3807C35.7625 34.3405 35.7474 34.2962 35.7413 34.2501C35.7352 34.2041 35.7383 34.1574 35.7503 34.1125C35.7623 34.0677 35.783 34.0256 35.8112 33.9888C35.8395 33.9519 35.8747 33.921 35.9149 33.8978C35.9551 33.8746 35.9995 33.8595 36.0455 33.8534C36.0915 33.8473 36.1383 33.8504 36.1831 33.8624C36.228 33.8744 36.27 33.8951 36.3068 33.9233L36.8221 34.3184L38.0396 32.73C38.0678 32.6932 38.103 32.6623 38.1432 32.6391C38.1833 32.6159 38.2277 32.6008 38.2737 32.5947C38.3197 32.5886 38.3665 32.5917 38.4113 32.6037C38.4561 32.6157 38.4981 32.6364 38.535 32.6646C38.6093 32.7217 38.6582 32.806 38.6704 32.8989C38.6827 32.9918 38.6576 33.0858 38.6006 33.1602L37.1686 35.0276C37.1355 35.0706 37.0929 35.1054 37.0441 35.1294C36.9953 35.1533 36.9417 35.1656 36.8874 35.1655L36.8871 35.1659Z" fill="#6C63FF"/>
<path d="M194.19 0H84.7472C83.2067 0.00139546 81.7297 0.613995 80.6403 1.70332C79.551 2.79265 78.9384 4.26968 78.937 5.81022V23.5467C78.9384 25.0872 79.551 26.5643 80.6403 27.6536C81.7297 28.7429 83.2067 29.3555 84.7472 29.3569H194.19C195.73 29.3555 197.207 28.7429 198.297 27.6536C199.386 26.5643 199.999 25.0872 200 23.5467V5.81022C199.999 4.26968 199.386 2.79264 198.297 1.70332C197.207 0.61399 195.73 0.00139546 194.19 0ZM199.388 23.5467C199.386 24.9248 198.838 26.246 197.864 27.2205C196.889 28.195 195.568 28.7434 194.19 28.7453H84.7472C83.3691 28.7434 82.0479 28.195 81.0734 27.2205C80.0989 26.246 79.5506 24.9248 79.5486 23.5467V5.81022C79.5506 4.43206 80.0989 3.11091 81.0734 2.1364C82.0479 1.16189 83.3691 0.613551 84.7472 0.6116H194.19C195.568 0.613551 196.889 1.16189 197.864 2.1364C198.838 3.11091 199.386 4.43206 199.388 5.81022V23.5467Z" fill="#3F3D56"/>
<path d="M107.019 24.7912C105.019 24.7912 103.064 24.1981 101.4 23.0869C99.7374 21.9757 98.4412 20.3963 97.6758 18.5485C96.9104 16.7006 96.7101 14.6673 97.1003 12.7056C97.4905 10.7439 98.4536 8.94196 99.8679 7.52766C101.282 6.11336 103.084 5.15021 105.046 4.76C107.008 4.36979 109.041 4.57005 110.889 5.33546C112.737 6.10087 114.316 7.39705 115.427 9.06008C116.538 10.7231 117.131 12.6783 117.131 14.6784C117.128 17.3596 116.062 19.93 114.166 21.8258C112.27 23.7217 109.7 24.7881 107.019 24.7912Z" fill="#6C63FF"/>
<path d="M179.257 22.9351H126.694C126.045 22.9351 125.423 22.6773 124.964 22.2185C124.505 21.7597 124.247 21.1375 124.247 20.4886C124.247 19.8398 124.505 19.2176 124.964 18.7588C125.423 18.3 126.045 18.0422 126.694 18.0422H179.257C179.906 18.0422 180.528 18.3 180.987 18.7588C181.446 19.2176 181.704 19.8398 181.704 20.4886C181.704 21.1375 181.446 21.7597 180.987 22.2185C180.528 22.6773 179.906 22.9351 179.257 22.9351Z" fill="#CCCCCC"/>
<path d="M144.09 12.5378H126.694C126.045 12.5378 125.423 12.2801 124.964 11.8213C124.505 11.3625 124.247 10.7403 124.247 10.0914C124.247 9.4426 124.505 8.82036 124.964 8.36157C125.423 7.90277 126.045 7.64502 126.694 7.64502H144.09C144.739 7.64502 145.361 7.90277 145.82 8.36157C146.279 8.82036 146.537 9.4426 146.537 10.0914C146.537 10.7403 146.279 11.3625 145.82 11.8213C145.361 12.2801 144.739 12.5378 144.09 12.5378Z" fill="#CCCCCC"/>
<path d="M106.502 18.2356C106.251 18.2361 106.007 18.1549 105.806 18.0044L105.794 17.995L103.173 15.99C103.051 15.897 102.949 15.781 102.872 15.6485C102.796 15.516 102.746 15.3697 102.725 15.2179C102.705 15.0661 102.715 14.9119 102.755 14.7639C102.794 14.616 102.863 14.4773 102.956 14.3558C103.049 14.2342 103.165 14.1323 103.298 14.0557C103.43 13.9792 103.577 13.9295 103.729 13.9096C103.88 13.8896 104.035 13.8998 104.182 13.9396C104.33 13.9793 104.469 14.0478 104.59 14.1412L106.288 15.4431L110.3 10.2092C110.393 10.0879 110.509 9.98605 110.641 9.90954C110.774 9.83303 110.92 9.78334 111.071 9.76332C111.223 9.7433 111.377 9.75333 111.525 9.79284C111.672 9.83235 111.811 9.90057 111.932 9.9936L111.933 9.99386L111.908 10.0284L111.933 9.99386C112.178 10.182 112.338 10.4596 112.379 10.7657C112.419 11.0718 112.336 11.3814 112.149 11.6266L107.43 17.78C107.321 17.9218 107.18 18.0365 107.02 18.1153C106.859 18.1941 106.682 18.2348 106.503 18.2343L106.502 18.2356Z" fill="white"/>
<path d="M147.165 47.7209H37.7228C36.1823 47.7223 34.7052 48.3349 33.6159 49.4243C32.5266 50.5136 31.914 51.9906 31.9126 53.5312V71.2676C31.914 72.8082 32.5266 74.2852 33.6159 75.3745C34.7052 76.4639 36.1823 77.0765 37.7228 77.0779H147.165C148.706 77.0765 150.183 76.4639 151.272 75.3745C152.362 74.2852 152.974 72.8082 152.976 71.2676V53.5312C152.974 51.9906 152.362 50.5136 151.272 49.4243C150.183 48.3349 148.706 47.7223 147.165 47.7209Z" fill="white"/>
<path d="M147.165 47.7209H37.7228C36.1823 47.7223 34.7052 48.3349 33.6159 49.4243C32.5266 50.5136 31.914 51.9906 31.9126 53.5312V71.2676C31.914 72.8082 32.5266 74.2852 33.6159 75.3745C34.7052 76.4639 36.1823 77.0765 37.7228 77.0779H147.165C148.706 77.0765 150.183 76.4639 151.272 75.3745C152.362 74.2852 152.974 72.8082 152.976 71.2676V53.5312C152.974 51.9906 152.362 50.5136 151.272 49.4243C150.183 48.3349 148.706 47.7223 147.165 47.7209ZM152.364 71.2676C152.362 72.6458 151.814 73.967 150.839 74.9415C149.865 75.916 148.544 76.4643 147.165 76.4662H37.7228C36.3447 76.4643 35.0235 75.916 34.049 74.9415C33.0745 73.967 32.5261 72.6458 32.5242 71.2676V53.5312C32.5261 52.153 33.0745 50.8318 34.049 49.8573C35.0235 48.8828 36.3446 48.3345 37.7228 48.3326H147.165C148.544 48.3345 149.865 48.8828 150.839 49.8573C151.814 50.8318 152.362 52.153 152.364 53.5312V71.2676Z" fill="#3F3D56"/>
<path d="M59.9947 72.5121C57.9946 72.5121 56.0394 71.9191 54.3763 70.8079C52.7133 69.6967 51.4171 68.1173 50.6516 66.2694C49.8862 64.4216 49.686 62.3882 50.0761 60.4265C50.4663 58.4648 51.4295 56.6629 52.8438 55.2486C54.2581 53.8343 56.06 52.8712 58.0217 52.4809C59.9833 52.0907 62.0167 52.291 63.8646 53.0564C65.7124 53.8218 67.2918 55.118 68.403 56.781C69.5142 58.4441 70.1073 60.3993 70.1073 62.3994C70.1043 65.0805 69.0379 67.6509 67.1421 69.5468C65.2462 71.4426 62.6758 72.5091 59.9947 72.5121Z" fill="#6C63FF"/>
<path d="M132.233 70.6561H79.6693C79.0205 70.6561 78.3982 70.3984 77.9394 69.9396C77.4806 69.4808 77.2229 68.8585 77.2229 68.2097C77.2229 67.5609 77.4806 66.9386 77.9394 66.4799C78.3982 66.0211 79.0205 65.7633 79.6693 65.7633H132.233C132.882 65.7633 133.504 66.0211 133.963 66.4799C134.422 66.9386 134.679 67.5609 134.679 68.2097C134.679 68.8585 134.422 69.4808 133.963 69.9396C133.504 70.3984 132.882 70.6561 132.233 70.6561Z" fill="#CCCCCC"/>
<path d="M97.0657 60.2588H79.6693C79.348 60.2588 79.0299 60.1955 78.7331 60.0726C78.4363 59.9496 78.1666 59.7694 77.9394 59.5423C77.7123 59.3151 77.5321 59.0454 77.4091 58.7486C77.2862 58.4518 77.2229 58.1336 77.2229 57.8124C77.2229 57.4911 77.2862 57.173 77.4091 56.8762C77.5321 56.5794 77.7123 56.3097 77.9394 56.0825C78.1666 55.8553 78.4363 55.6751 78.7331 55.5522C79.0299 55.4293 79.348 55.366 79.6693 55.366H97.0657C97.7146 55.366 98.3368 55.6237 98.7956 56.0825C99.2544 56.5413 99.5121 57.1635 99.5121 57.8124C99.5121 58.4612 99.2544 59.0835 98.7956 59.5423C98.3368 60.001 97.7146 60.2588 97.0657 60.2588Z" fill="#CCCCCC"/>
<path d="M59.4782 65.9566C59.2273 65.957 58.983 65.8758 58.7823 65.7253L58.7698 65.716L56.1487 63.7109C56.0271 63.618 55.9249 63.5019 55.8482 63.3694C55.7714 63.237 55.7215 63.0906 55.7013 62.9389C55.6811 62.7871 55.6911 62.6328 55.7306 62.4849C55.7701 62.3369 55.8384 62.1982 55.9316 62.0767C56.0247 61.9552 56.1409 61.8532 56.2735 61.7767C56.4061 61.7001 56.5525 61.6504 56.7043 61.6305C56.8562 61.6106 57.0104 61.6208 57.1583 61.6605C57.3062 61.7003 57.4447 61.7688 57.5661 61.8621L59.2638 63.164L63.2757 57.9302C63.3687 57.8088 63.4847 57.707 63.6171 57.6305C63.7495 57.554 63.8956 57.5043 64.0472 57.4843C64.1988 57.4642 64.3528 57.4743 64.5006 57.5138C64.6483 57.5533 64.7867 57.6215 64.9081 57.7145L64.9084 57.7148L64.8835 57.7494L64.9091 57.7148C65.1539 57.903 65.3141 58.1805 65.3545 58.4866C65.3948 58.7927 65.3121 59.1023 65.1245 59.3475L60.4057 65.501C60.2965 65.6427 60.1561 65.7575 59.9955 65.8363C59.8348 65.915 59.6582 65.9557 59.4792 65.9552L59.4782 65.9566Z" fill="white"/>
<path d="M34.174 51.722C33.7342 51.536 33.259 51.4487 32.7818 51.4662C32.3046 51.4837 31.8371 51.6057 31.4121 51.8234C30.9872 52.0412 30.6151 52.3495 30.3222 52.7266C30.0293 53.1037 29.8226 53.5404 29.7167 54.006L22.3599 55.2663L22.0354 59.9238L32.3996 57.9981C33.1936 58.1242 34.0063 57.9545 34.6836 57.5214C35.3609 57.0883 35.8558 56.4218 36.0745 55.6482C36.2932 54.8746 36.2206 54.0476 35.8703 53.324C35.52 52.6004 34.9165 52.0304 34.174 51.722Z" fill="#FFB8B8"/>
<path d="M21.5367 38.3536C22.6027 38.8326 23.4434 39.7034 23.8846 40.7856C24.3258 41.8677 24.3335 43.0782 23.9062 44.1659L19.6417 55.0205L24.9954 54.0365C25.3297 53.975 25.6749 54.0379 25.9661 54.2133C26.2573 54.3886 26.4743 54.6644 26.5763 54.9886L27.6435 58.3803C27.6993 58.5575 27.7191 58.744 27.7017 58.929C27.6843 59.1139 27.6301 59.2935 27.5422 59.4572C27.4544 59.6209 27.3347 59.7654 27.1903 59.8821C27.0458 59.9989 26.8794 60.0856 26.701 60.1371L19.7424 62.1463C18.8622 62.4004 17.935 62.4471 17.0337 62.2826C16.1324 62.1182 15.2815 61.747 14.5478 61.1984C13.814 60.6497 13.2174 59.9384 12.8048 59.1204C12.3922 58.3024 12.1749 57.3999 12.1698 56.4837C12.1674 56.0556 12.2114 55.6284 12.301 55.2098L15.2249 41.5505C15.3668 40.8872 15.6554 40.2641 16.0694 39.7267C16.4833 39.1894 17.0123 38.7514 17.6174 38.4449C18.2225 38.1384 18.8886 37.9711 19.5667 37.9553C20.2449 37.9395 20.918 38.0756 21.5367 38.3536Z" fill="#CCCCCC"/>
</g>
<defs>
<clipPath id="clip0_813_884">
<rect width="200" height="143.192" fill="white"/>
</clipPath>
</defs>
</svg>
