<svg width="200" height="133" viewBox="0 0 200 133" fill="none" xmlns="http://www.w3.org/2000/svg">
<g clip-path="url(#clip0_813_783)">
<path d="M71.74 76.4932C78.594 64.4362 91.6682 55.1784 105.508 56.0702C95.2995 67.1719 89.3464 81.5269 88.7025 96.5952C88.4753 102.407 88.8277 108.896 84.9686 113.248C82.5675 115.956 78.8972 117.267 75.2886 117.542C71.6798 117.817 68.0718 117.165 64.5112 116.516L63.6475 116.781C63.3186 102.916 64.8859 88.5502 71.74 76.4932Z" fill="#F0F0F0"/>
<path d="M105.529 56.3605C95.2944 61.2875 86.5676 69.516 81.2104 79.5513C80.0522 81.7209 79.0661 84.0226 78.636 86.4563C78.2056 88.891 78.5062 91.2086 79.3378 93.5211C80.0981 95.6352 81.1205 97.7096 81.3536 99.9716C81.5994 102.356 80.7221 104.585 79.1429 106.355C77.2107 108.52 74.6159 109.861 72.0328 111.085C69.1648 112.443 66.1643 113.809 64.1329 116.345C63.8868 116.652 63.4245 116.252 63.6702 115.946C67.2045 111.534 73.2542 110.704 77.4494 107.151C79.4069 105.492 80.8766 103.234 80.7838 100.588C80.7027 98.2739 79.6502 96.1338 78.8619 93.9999C78.0342 91.7593 77.6214 89.5064 77.9183 87.1176C78.2219 84.674 79.1201 82.3289 80.2177 80.1391C82.6932 75.2008 86.081 70.6671 89.9619 66.7479C94.4222 62.243 99.6202 58.5342 105.331 55.7821C105.685 55.6119 105.88 56.1914 105.529 56.3605Z" fill="white"/>
<path d="M82.7796 76.1975C81.2106 75.0502 80.1005 73.3826 79.6475 71.4925C79.1945 69.6023 79.4282 67.6127 80.3068 65.8789C80.4858 65.5287 81.0384 65.7903 80.8592 66.141C80.0381 67.754 79.8206 69.6074 80.246 71.3666C80.6714 73.1259 81.7116 74.6751 83.179 75.7348C83.4976 75.9654 83.0963 76.4268 82.7796 76.1975Z" fill="white"/>
<path d="M78.8111 92.4999C82.7426 91.9255 86.3132 89.8903 88.8109 86.8002C89.0581 86.4938 89.5205 86.8936 89.2736 87.1996C86.6685 90.4104 82.9484 92.5208 78.8559 93.1096C78.4658 93.1654 78.4231 92.5555 78.8111 92.4999Z" fill="white"/>
<path d="M94.7242 62.9951C95.2388 63.5655 95.887 63.9991 96.6106 64.2571C97.3342 64.5151 98.1106 64.5893 98.8699 64.4731C99.2592 64.4123 99.3014 65.0223 98.9147 65.0827C98.0751 65.2072 97.2178 65.1242 96.4177 64.8409C95.6176 64.5577 94.8991 64.0828 94.3248 63.4578C94.2658 63.4034 94.2296 63.3286 94.2237 63.2485C94.2179 63.1685 94.2427 63.0892 94.2932 63.0267C94.3464 62.9657 94.4215 62.9282 94.5022 62.9223C94.5829 62.9163 94.6627 62.9425 94.7242 62.9951Z" fill="white"/>
<path d="M133.046 94.1056C132.804 94.1505 132.562 94.1953 132.318 94.2449C129.068 94.8648 125.874 95.7477 122.768 96.8849C122.526 96.969 122.282 97.0579 122.044 97.1488C114.588 99.9683 107.72 104.148 101.79 109.474C99.4323 111.596 97.2394 113.894 95.2302 116.348C92.4557 119.738 89.7172 123.634 86.0916 125.845C85.7159 126.08 85.326 126.291 84.9242 126.478L64.0382 117.814C64.0006 117.771 63.9608 117.732 63.923 117.688L63.0732 117.381C63.168 117.247 63.2692 117.11 63.364 116.976C63.4186 116.898 63.4779 116.822 63.5326 116.744C63.5705 116.693 63.6087 116.642 63.64 116.593C63.6525 116.576 63.6653 116.559 63.6759 116.547C63.7072 116.499 63.7414 116.457 63.7707 116.413C64.3341 115.647 64.9039 114.884 65.4801 114.123C65.4821 114.118 65.4821 114.118 65.4887 114.115C69.8936 108.33 74.8202 102.862 80.4202 98.3147C80.5888 98.178 80.759 98.0364 80.9371 97.9036C83.4727 95.8681 86.1704 94.0432 89.0033 92.4472C90.5573 91.5783 92.1543 90.7886 93.7882 90.0812C98.0134 88.2614 102.498 87.1175 107.079 86.6914C116.211 85.8435 125.512 87.9254 132.515 93.6621C132.695 93.809 132.869 93.954 133.046 94.1056Z" fill="#F0F0F0"/>
<path d="M132.889 94.3512C121.751 92.1232 109.829 93.439 99.5097 98.2263C97.2786 99.2613 95.1055 100.505 93.2968 102.19C91.4874 103.874 90.332 105.906 89.6037 108.253C88.9379 110.399 88.5053 112.671 87.3296 114.617C86.0902 116.669 84.0475 117.921 81.7214 118.383C78.8753 118.948 75.9958 118.457 73.1966 117.878C70.0886 117.237 66.8706 116.52 63.7219 117.322C63.3404 117.419 63.212 116.822 63.5929 116.725C69.071 115.33 74.4007 118.31 79.8901 117.998C82.4515 117.853 84.9846 116.935 86.5037 114.766C87.832 112.87 88.2801 110.527 88.9354 108.349C89.6236 106.061 90.6504 104.014 92.3256 102.285C94.0393 100.517 96.1684 99.1855 98.3632 98.098C103.313 95.6454 108.748 94.0652 114.206 93.2725C120.479 92.3609 126.863 92.5293 133.079 93.7702C133.464 93.8472 133.271 94.4277 132.889 94.3512Z" fill="white"/>
<path d="M102.782 96.4932C102.22 94.6326 102.338 92.6327 103.114 90.8508C103.89 89.0689 105.275 87.621 107.02 86.7656C107.374 86.5938 107.658 87.1354 107.303 87.3075C105.677 88.101 104.387 89.4499 103.668 91.1107C102.948 92.7714 102.846 94.6348 103.379 96.3643C103.495 96.7402 102.897 96.8671 102.782 96.4932Z" fill="white"/>
<path d="M89.7981 107.121C93.2831 109.029 97.3593 109.554 101.214 108.59C101.596 108.494 101.724 109.092 101.343 109.188C97.3298 110.183 93.089 109.628 89.4668 107.634C89.1217 107.444 89.4549 106.931 89.7981 107.121Z" fill="white"/>
<path d="M120.268 93.1433C120.335 93.9085 120.592 94.645 121.014 95.2867C121.436 95.9283 122.012 96.455 122.688 96.8194C123.035 97.0052 122.702 97.5177 122.357 97.3331C121.611 96.927 120.977 96.3446 120.508 95.6367C120.04 94.9288 119.752 94.117 119.67 93.2723C119.656 93.1933 119.672 93.1118 119.715 93.0443C119.759 92.9768 119.827 92.9285 119.904 92.909C119.984 92.8924 120.066 92.9076 120.134 92.9515C120.202 92.9953 120.25 93.0643 120.268 93.1433Z" fill="white"/>
<path d="M93.2596 108.398C90.3345 94.2552 86.6782 89.5399 86.6782 89.5399L85.2814 88.4567L83.6017 87.1519L83.6098 86.9842L83.2114 86.8487L83.1178 86.7761L82.9644 86.6583L82.9398 86.6848L82.8877 86.7387L75.2865 84.155L65.6432 80.8794L61.1777 75.0752C60.4505 74.1299 59.5142 73.3658 58.4422 72.843C57.3703 72.3201 56.1918 72.0526 54.9991 72.0614L40.7378 72.167C38.8095 72.1812 36.9563 72.9163 35.5425 74.2277L26.1688 82.9225L11.5628 89.8983L11.5381 89.8736L11.3847 89.9832L9.12797 91.0623L9.2211 91.547L7.8243 92.5549C7.8243 92.5549 4.168 96.9425 1.24295 110.102C0.49885 113.451 0.132576 120.634 0.000371524 129.485C-0.00626912 129.933 0.0761714 130.378 0.242897 130.793C0.409623 131.209 0.65731 131.587 0.971554 131.906C1.2858 132.225 1.66033 132.479 2.07338 132.652C2.48642 132.825 2.92974 132.914 3.37755 132.914H81.3914L91.1285 132.914C91.576 132.914 92.019 132.825 92.4318 132.652C92.8446 132.479 93.2189 132.226 93.5331 131.907C93.8473 131.589 94.095 131.211 94.262 130.796C94.429 130.38 94.5118 129.936 94.5057 129.489C94.3766 119.857 94.0104 112.03 93.2596 108.398Z" fill="#3F3D56"/>
<path d="M103.269 12.3339C100.234 12.3339 97.3231 13.5396 95.1769 15.6859C93.0307 17.8321 91.825 20.7429 91.825 23.7781C91.825 26.8133 93.0307 29.7242 95.1769 31.8704C97.3231 34.0166 100.234 35.2224 103.269 35.2224H188.556C191.591 35.2224 194.502 34.0166 196.648 31.8704C198.794 29.7242 200 26.8133 200 23.7781C200 20.7429 198.794 17.8321 196.648 15.6859C194.502 13.5396 191.591 12.3339 188.556 12.3339H103.269Z" fill="#E5E5E5"/>
<path d="M103.269 14.65C100.848 14.65 98.5263 15.6117 96.8144 17.3236C95.1026 19.0354 94.1409 21.3572 94.1409 23.7781C94.1409 26.1991 95.1026 28.5208 96.8144 30.2327C98.5263 31.9445 100.848 32.9063 103.269 32.9063H188.556C190.977 32.9063 193.298 31.9445 195.01 30.2327C196.722 28.5208 197.684 26.1991 197.684 23.7781C197.684 21.3572 196.722 19.0354 195.01 17.3236C193.298 15.6117 190.977 14.65 188.556 14.65H103.269Z" fill="white"/>
<path d="M50.108 66.7038C60.4267 66.7038 68.7916 58.3388 68.7916 48.0201C68.7916 37.7014 60.4267 29.3364 50.108 29.3364C39.7893 29.3364 31.4243 37.7014 31.4243 48.0201C31.4243 58.3388 39.7893 66.7038 50.108 66.7038Z" fill="#9E616A"/>
<path d="M45.3284 65.7889C45.2486 65.6132 45.169 65.4368 45.0896 65.2599C45.1202 65.2609 45.1505 65.2653 45.1811 65.2661L45.3284 65.7889Z" fill="#2F2E41"/>
<path d="M30.9048 30.1861C31.8498 29.4322 32.9542 28.7386 34.1624 28.7776C35.3705 28.8166 36.5957 29.9078 36.3454 31.0904C38.5646 27.1612 42.0968 24.1391 46.3221 22.5548C50.5474 20.9704 55.1957 20.9249 59.4512 22.4263C62.454 23.4857 65.3987 25.6052 66.0885 28.7137C66.2655 29.5117 66.3036 30.3867 66.8018 31.0347C67.43 31.8517 68.632 32.0365 69.6217 31.7491C69.6316 31.7462 69.6415 31.7433 69.6513 31.7404C69.8185 31.6833 69.999 31.6776 70.1694 31.7242C70.3398 31.7708 70.4924 31.8675 70.6072 32.0017C70.7221 32.1359 70.7941 32.3015 70.8138 32.4771C70.8336 32.6527 70.8002 32.8301 70.718 32.9865L69.8684 34.5711C70.9394 34.8098 72.0522 34.7861 73.1121 34.5021C73.2882 34.4559 73.4742 34.4653 73.6447 34.5291C73.8152 34.5928 73.9619 34.7077 74.0644 34.8581C74.167 35.0085 74.2206 35.1869 74.2178 35.3689C74.215 35.5509 74.1559 35.7276 74.0487 35.8747C71.2472 39.7211 66.5667 42.2049 61.7903 42.1757C58.3956 42.155 54.9659 40.985 51.6621 41.7657C50.3839 42.0677 49.1896 42.652 48.1668 43.4758C47.1439 44.2995 46.3185 45.3419 45.751 46.5263C45.1836 47.7107 44.8884 49.0071 44.8874 50.3204C44.8863 51.6337 45.1792 52.9306 45.7447 54.116C44.7298 53.0058 42.7678 53.2686 41.7295 54.3571C40.6914 55.4456 40.4226 57.0702 40.5272 58.5708C40.6872 60.8658 41.5864 63.0284 42.5343 65.1332C34.5865 64.883 27.0692 59.3077 24.5388 51.767C21.9979 44.1948 24.6609 35.167 30.9048 30.1861Z" fill="#2F2E41"/>
<path opacity="0.2" d="M18.3896 104.128L23.63 132.64L26.7743 132.914L18.3896 104.128Z" fill="black"/>
<path opacity="0.2" d="M76.1129 101.978L70.8726 132.62L67.7283 132.914L76.1129 101.978Z" fill="black"/>
<path d="M35.3743 20.5905C34.3696 21.0101 33.3212 20.5503 32.8815 19.4973C32.4351 18.4282 32.852 17.3429 33.8729 16.9166C34.8938 16.4903 35.9236 16.9513 36.3772 18.0376C36.824 19.1076 36.4116 20.1574 35.3743 20.5905ZM33.4496 14.8123L32.6507 15.1459C32.4512 15.2283 32.228 15.2327 32.0253 15.1584C31.8226 15.084 31.6552 14.9363 31.5561 14.7445L31.5166 14.6672C30.657 13.1169 30.5586 11.2328 31.2256 9.07004C31.8436 7.12997 32.1002 5.76553 31.5841 4.52942C30.9873 3.10024 29.713 2.65255 28.0879 3.30108C27.4576 3.56426 27.2571 3.56007 26.7611 4.0521C26.6532 4.16044 26.5246 4.24593 26.3829 4.30349C26.2413 4.36105 26.0895 4.38949 25.9366 4.38713C25.7889 4.38539 25.6429 4.35391 25.5076 4.29456C25.3722 4.23521 25.2502 4.14921 25.1488 4.04168C24.9534 3.83447 24.844 3.56085 24.8425 3.27607C24.8411 2.99129 24.9478 2.71657 25.141 2.5074C25.9747 1.63469 26.9803 0.944267 28.0942 0.479696C31.5858 -0.978258 33.3434 1.1742 34.1478 3.10045C34.9345 4.98454 34.492 6.73267 33.7809 8.99666C33.185 10.8779 33.2197 12.2719 33.8966 13.6579C33.9455 13.7627 33.9726 13.8763 33.9765 13.9918C33.9804 14.1074 33.9609 14.2225 33.9191 14.3304C33.8774 14.4382 33.8143 14.5365 33.7336 14.6193C33.6529 14.7021 33.5563 14.7678 33.4496 14.8123Z" fill="#6C63FF"/>
<path d="M122.108 29.2362H105.139C105.085 29.2366 105.032 29.2263 104.982 29.2059C104.932 29.1856 104.886 29.1555 104.848 29.1175C104.81 29.0795 104.78 29.0344 104.759 28.9846C104.738 28.9348 104.728 28.8814 104.728 28.8275C104.728 28.7736 104.738 28.7202 104.759 28.6705C104.78 28.6207 104.81 28.5755 104.848 28.5375C104.886 28.4995 104.932 28.4695 104.982 28.4491C105.032 28.4287 105.085 28.4184 105.139 28.4188H122.108C122.216 28.4195 122.319 28.4629 122.395 28.5395C122.471 28.6161 122.514 28.7196 122.514 28.8275C122.514 28.9354 122.471 29.039 122.395 29.1156C122.319 29.1921 122.216 29.2355 122.108 29.2362Z" fill="#6C63FF"/>
<path d="M143.634 29.3725H126.665C126.611 29.3728 126.558 29.3625 126.508 29.3422C126.458 29.3218 126.412 29.2917 126.374 29.2538C126.336 29.2158 126.306 29.1706 126.285 29.1208C126.264 29.071 126.253 29.0177 126.253 28.9638C126.253 28.9098 126.264 28.8565 126.285 28.8067C126.306 28.7569 126.336 28.7117 126.374 28.6738C126.412 28.6358 126.458 28.6057 126.508 28.5853C126.558 28.565 126.611 28.5547 126.665 28.555H143.634C143.688 28.5547 143.741 28.565 143.791 28.5853C143.841 28.6057 143.886 28.6358 143.925 28.6738C143.963 28.7117 143.993 28.7569 144.014 28.8067C144.035 28.8565 144.045 28.9098 144.045 28.9638C144.045 29.0177 144.035 29.071 144.014 29.1208C143.993 29.1706 143.963 29.2158 143.925 29.2538C143.886 29.2917 143.841 29.3218 143.791 29.3422C143.741 29.3625 143.688 29.3728 143.634 29.3725Z" fill="#6C63FF"/>
<path d="M165.16 29.5087H148.191C148.083 29.508 147.98 29.4646 147.904 29.388C147.828 29.3114 147.785 29.2079 147.785 29.1C147.785 28.9921 147.828 28.8885 147.904 28.8119C147.98 28.7354 148.083 28.692 148.191 28.6913H165.16C165.214 28.6909 165.267 28.7012 165.317 28.7216C165.367 28.742 165.413 28.772 165.451 28.81C165.489 28.848 165.519 28.8932 165.54 28.9429C165.561 28.9927 165.571 29.0461 165.571 29.1C165.571 29.1539 165.561 29.2073 165.54 29.257C165.519 29.3068 165.489 29.352 165.451 29.39C165.413 29.428 165.367 29.458 165.317 29.4784C165.267 29.4988 165.214 29.5091 165.16 29.5087Z" fill="#6C63FF"/>
<path d="M186.686 29.645H169.717C169.609 29.6442 169.506 29.6008 169.43 29.5243C169.354 29.4477 169.311 29.3442 169.311 29.2362C169.311 29.1283 169.354 29.0248 169.43 28.9482C169.506 28.8716 169.609 28.8282 169.717 28.8275H186.686C186.794 28.8282 186.897 28.8716 186.973 28.9482C187.049 29.0248 187.092 29.1283 187.092 29.2362C187.092 29.3442 187.049 29.4477 186.973 29.5243C186.897 29.6008 186.794 29.6442 186.686 29.645Z" fill="#6C63FF"/>
<path d="M113.586 25.4747C115.328 25.4747 116.74 24.0627 116.74 22.3209C116.74 20.5791 115.328 19.1671 113.586 19.1671C111.844 19.1671 110.432 20.5791 110.432 22.3209C110.432 24.0627 111.844 25.4747 113.586 25.4747Z" fill="#6C63FF"/>
<path d="M135.242 25.4747C136.984 25.4747 138.396 24.0627 138.396 22.3209C138.396 20.5791 136.984 19.1671 135.242 19.1671C133.5 19.1671 132.088 20.5791 132.088 22.3209C132.088 24.0627 133.5 25.4747 135.242 25.4747Z" fill="#6C63FF"/>
<path d="M156.898 25.4747C158.64 25.4747 160.052 24.0627 160.052 22.3209C160.052 20.5791 158.64 19.1671 156.898 19.1671C155.156 19.1671 153.744 20.5791 153.744 22.3209C153.744 24.0627 155.156 25.4747 156.898 25.4747Z" fill="#6C63FF"/>
<path d="M178.554 25.4747C180.296 25.4747 181.708 24.0627 181.708 22.3209C181.708 20.5791 180.296 19.1671 178.554 19.1671C176.812 19.1671 175.4 20.5791 175.4 22.3209C175.4 24.0627 176.812 25.4747 178.554 25.4747Z" fill="#6C63FF"/>
</g>
<defs>
<clipPath id="clip0_813_783">
<rect width="200" height="132.914" fill="white"/>
</clipPath>
</defs>
</svg>
