<svg width="200" height="234" viewBox="0 0 200 234" fill="none" xmlns="http://www.w3.org/2000/svg">
<g clip-path="url(#clip0_684_973)">
<path d="M193.536 85.9795H6.29286C4.62448 85.9775 3.02498 85.3139 1.84526 84.1342C0.665537 82.9545 0.00192644 81.355 0 79.6866V6.29285C0.00192644 4.62447 0.665537 3.02498 1.84526 1.84526C3.02498 0.665537 4.62448 0.00192644 6.29286 0H193.536C195.204 0.00192644 196.804 0.665537 197.983 1.84526C199.163 3.02498 199.827 4.62447 199.829 6.29285V79.6866C199.827 81.355 199.163 82.9545 197.983 84.1342C196.804 85.3139 195.204 85.9775 193.536 85.9795Z" fill="#F2F2F2"/>
<path d="M149.867 81.966H36.0147C27.5307 81.9564 19.3968 78.5819 13.3977 72.5827C7.3985 66.5836 4.02398 58.4497 4.0144 49.9657V36.0173C4.02397 27.5332 7.39848 19.3993 13.3976 13.4001C19.3968 7.40092 27.5306 4.02635 36.0147 4.01672H163.815C172.299 4.02635 180.433 7.40092 186.432 13.4001C192.431 19.3993 195.806 27.5332 195.815 36.0173C195.801 48.1994 190.956 59.8786 182.342 68.4927C173.728 77.1068 162.049 81.9522 149.867 81.966Z" fill="white"/>
<path d="M120.498 25.0269H45.2401C44.8097 25.0269 44.3969 24.8559 44.0925 24.5516C43.7882 24.2472 43.6172 23.8344 43.6172 23.404C43.6172 22.9736 43.7882 22.5608 44.0925 22.2564C44.3969 21.9521 44.8097 21.7811 45.2401 21.7811H120.498C120.928 21.7811 121.341 21.9521 121.645 22.2564C121.949 22.5608 122.12 22.9736 122.12 23.404C122.12 23.8344 121.949 24.2472 121.645 24.5516C121.341 24.8559 120.928 25.0269 120.498 25.0269Z" fill="#E6E6E6"/>
<path d="M158.594 42.3425H45.2401C44.8097 42.3425 44.3969 42.1715 44.0925 41.8672C43.7882 41.5628 43.6172 41.15 43.6172 40.7196C43.6172 40.2892 43.7882 39.8764 44.0925 39.572C44.3969 39.2677 44.8097 39.0967 45.2401 39.0967H158.594C159.025 39.0967 159.437 39.2677 159.742 39.572C160.046 39.8764 160.217 40.2892 160.217 40.7196C160.217 41.15 160.046 41.5628 159.742 41.8672C159.437 42.1715 159.025 42.3425 158.594 42.3425Z" fill="#E6E6E6"/>
<path d="M158.594 59.6581H45.2401C44.8097 59.6581 44.3969 59.4871 44.0925 59.1827C43.7882 58.8784 43.6172 58.4656 43.6172 58.0352C43.6172 57.6047 43.7882 57.1919 44.0925 56.8876C44.3969 56.5832 44.8097 56.4122 45.2401 56.4122H158.594C159.025 56.4122 159.437 56.5832 159.742 56.8876C160.046 57.1919 160.217 57.6047 160.217 58.0352C160.217 58.4656 160.046 58.8784 159.742 59.1827C159.437 59.4871 159.025 59.6581 158.594 59.6581Z" fill="#E6E6E6"/>
<path d="M158.594 59.6581H45.2401C44.8097 59.6581 44.3969 59.4871 44.0925 59.1827C43.7882 58.8784 43.6172 58.4656 43.6172 58.0352C43.6172 57.6047 43.7882 57.1919 44.0925 56.8876C44.3969 56.5832 44.8097 56.4122 45.2401 56.4122H158.594C159.025 56.4122 159.437 56.5832 159.742 56.8876C160.046 57.1919 160.217 57.6047 160.217 58.0352C160.217 58.4656 160.046 58.8784 159.742 59.1827C159.437 59.4871 159.025 59.6581 158.594 59.6581Z" fill="#E6E6E6"/>
<path d="M112.556 44.3299C112.574 44.8187 112.699 45.2977 112.922 45.733C113.145 46.1683 113.461 46.5494 113.848 46.8494C114.234 47.1495 114.681 47.3611 115.158 47.4695C115.635 47.5779 116.13 47.5803 116.609 47.4767L122.798 57.6302L125.432 52.0405L119.151 43.2555C118.923 42.4639 118.414 41.7832 117.718 41.3423C117.022 40.9015 116.189 40.7311 115.376 40.8635C114.563 40.996 113.827 41.422 113.307 42.0608C112.788 42.6997 112.52 43.5071 112.556 44.3299Z" fill="#FFB6B6"/>
<path d="M159.002 73.4291L137.673 61.8597L130.945 55.5477C130.945 55.5477 128.02 54.7647 129.097 53.8137C130.173 52.8627 127.106 51.9456 127.106 51.9456L123.494 48.5571L118.362 52.1883L119.847 54.4907C119.847 54.4907 119.745 58.3021 121.833 57.5688C123.921 56.8356 123.399 59.9966 123.399 59.9966L135.862 79.3154L159.002 73.4291Z" fill="#3F3D56"/>
<path d="M96.0404 62.529C107.546 62.529 116.874 53.2014 116.874 41.6954C116.874 30.1893 107.546 20.8618 96.0404 20.8618C84.5343 20.8618 75.2068 30.1893 75.2068 41.6954C75.2068 53.2014 84.5343 62.529 96.0404 62.529Z" fill="#6C63FF"/>
<path d="M159.068 225.176H154.736L152.675 208.468H159.068V225.176Z" fill="#FFB6B6"/>
<path d="M161.354 232.682H158.248L157.693 229.749L156.273 232.682H148.034C147.639 232.682 147.254 232.556 146.936 232.322C146.618 232.088 146.383 231.758 146.266 231.381C146.148 231.004 146.154 230.599 146.283 230.226C146.412 229.853 146.656 229.53 146.981 229.306L153.561 224.762V221.796L160.482 222.21L161.354 232.682Z" fill="#2F2E41"/>
<path d="M124.422 225.176H120.09L118.029 208.468H124.422V225.176Z" fill="#FFB6B6"/>
<path d="M126.708 232.682H123.602L123.047 229.749L121.627 232.682H113.388C112.993 232.682 112.608 232.556 112.29 232.322C111.972 232.088 111.737 231.758 111.62 231.381C111.502 231.004 111.508 230.599 111.637 230.226C111.766 229.853 112.01 229.53 112.335 229.306L118.915 224.762V221.796L125.836 222.21L126.708 232.682Z" fill="#2F2E41"/>
<path d="M154.472 98.8113H132.608V123.703H154.472V98.8113Z" fill="#FFB6B6"/>
<path d="M133.112 111.089L129.412 115.462L123.021 128.916L106.917 167.232L103.511 175.335L106.262 189.66C106.262 189.66 106.707 199.752 106.707 201.404C106.707 204.768 109.52 206.632 109.52 206.632L111.584 217.382L131.598 216.541C131.598 216.541 130.9 204.691 126.708 201.702C122.516 198.713 120.589 183.136 120.589 183.136L118.312 176.224L140.512 149.908L140.655 159.107L140.725 163.559C140.725 163.559 137.474 192.518 141.263 198.139C145.053 203.759 141.341 203.098 141.341 203.098L141.521 214.691L165.235 214.859L160.004 181.482C160.004 181.482 157.347 179.384 158.768 177.276C160.19 175.167 157.391 172.585 157.391 172.585L158.646 146.528C158.646 146.528 157.256 142.028 158.891 141.443C160.526 140.858 159.106 136.987 159.106 136.987L159.349 131.944L154.471 116.303L133.112 111.089Z" fill="#2F2E41"/>
<path d="M154.808 98.8113L157.163 91.7475L158.845 89.3929L159.517 82.6656C159.517 64.5016 155.466 67.5263 155.466 67.5263L153.126 61.1379L142.362 60.8015L135.467 67.3607L129.749 69.379L127.509 81.0141L131.599 93.4294L132.608 100.157C130.683 103.71 130.846 102.03 132.439 104.698L151.444 109.912C158.172 112.266 158.172 106.211 156.823 104.698C155.474 103.184 154.808 98.8113 154.808 98.8113Z" fill="#3F3D56"/>
<path d="M146.354 58.5435C151.865 58.5435 156.332 54.076 156.332 48.5651C156.332 43.0541 151.865 38.5866 146.354 38.5866C140.843 38.5866 136.375 43.0541 136.375 48.5651C136.375 54.076 140.843 58.5435 146.354 58.5435Z" fill="#FFB6B6"/>
<path d="M159.675 61.8847C159.769 62.0433 159.826 62.2211 159.842 62.4048C159.858 62.5885 159.832 62.7734 159.766 62.9458C159.701 63.1181 159.597 63.2734 159.463 63.4001C159.329 63.5268 159.168 63.6216 158.992 63.6775C157.654 64.1215 156.83 65.4165 155.868 66.4526C154.909 67.4852 153.365 68.343 152.141 67.6399C150.92 66.9403 150.836 65.1542 149.813 64.1854C148.817 63.2436 147.162 63.358 145.992 64.0744L145.957 64.096C145.755 64.2277 145.518 64.2973 145.277 64.2962C145.036 64.2951 144.8 64.2234 144.6 64.0898C144.399 63.9562 144.241 63.7667 144.147 63.5447C144.053 63.3227 144.026 63.0779 144.069 62.8406C144.479 60.6594 144.889 58.4783 145.299 56.2976C144.222 58.8911 142.659 61.2546 140.694 63.2604C140.153 63.8851 139.467 64.3678 138.696 64.6664C137.996 64.8884 137.317 64.1652 136.637 64.2964C138.326 62.8198 144.004 53.3543 142.988 47.0272C141.794 47.1617 140.6 47.2963 139.406 47.4308C139.276 46.8657 139 46.3447 138.605 45.9206C138.653 46.4705 138.583 47.0245 138.4 47.5452C137.902 47.6024 137.401 47.6562 136.903 47.7134C136.21 47.7908 135.457 47.858 134.861 47.4948C133.869 46.8893 133.839 45.4564 134.121 44.3261C134.949 41.0398 137.458 38.2917 140.529 36.852C143.6 35.4157 144.508 38.6146 147.744 37.592C154.135 35.5738 159.033 39.025 160.758 45.4295C162.208 50.8013 161.155 56.5027 159.675 61.8847Z" fill="#2F2E41"/>
<path d="M187.3 232.899H175.082L175.029 232.804C174.873 232.52 174.722 232.22 174.581 231.912C173.323 229.217 172.791 226.136 172.321 223.417L171.968 221.367C171.925 221.119 171.957 220.864 172.06 220.634C172.164 220.404 172.333 220.21 172.547 220.077C172.761 219.945 173.01 219.878 173.261 219.888C173.513 219.897 173.756 219.981 173.96 220.129C175.817 221.481 177.674 222.83 179.533 224.179C180.236 224.691 181.04 225.283 181.809 225.924C181.884 225.563 181.961 225.201 182.039 224.845C182.092 224.599 182.218 224.374 182.4 224.199C182.582 224.025 182.812 223.909 183.061 223.866C183.309 223.823 183.564 223.855 183.794 223.958C184.024 224.062 184.218 224.231 184.351 224.445L185.781 226.742C186.824 228.419 187.744 230.072 187.556 231.854C187.557 231.876 187.556 231.898 187.552 231.919C187.514 232.212 187.444 232.5 187.344 232.777L187.3 232.899Z" fill="#F0F0F0"/>
<path d="M199.564 233.163L83.4569 233.276C83.341 233.276 83.2301 233.229 83.1484 233.147C83.0666 233.065 83.0208 232.954 83.0208 232.838C83.0208 232.722 83.0666 232.611 83.1484 232.529C83.2301 232.447 83.341 232.4 83.4569 232.4L199.564 232.286C199.68 232.287 199.791 232.333 199.872 232.416C199.954 232.498 200 232.609 200 232.725C200 232.841 199.954 232.952 199.872 233.034C199.791 233.116 199.68 233.163 199.564 233.163Z" fill="#CACACA"/>
<path d="M94.1465 69.7358L81.3752 58.9506C80.9387 58.5811 80.6665 58.0535 80.6185 57.4837C80.5704 56.9138 80.7504 56.3481 81.1189 55.9107L83.4695 53.1273C83.839 52.6908 84.3666 52.4186 84.9365 52.3706C85.5063 52.3225 86.072 52.5025 86.5094 52.871L99.2806 63.6563C99.7172 64.0258 99.9893 64.5533 100.037 65.1232C100.085 65.6931 99.9054 66.2588 99.5369 66.6961L97.1863 69.4796C96.8169 69.9161 96.2893 70.1883 95.7194 70.2363C95.1495 70.2843 94.5838 70.1044 94.1465 69.7358Z" fill="#3F3D56"/>
<path d="M82.0455 56.1351C81.8469 56.3708 81.75 56.6756 81.7758 56.9827C81.8017 57.2898 81.9484 57.5741 82.1836 57.7732L94.9549 68.5585C95.1906 68.7571 95.4954 68.8541 95.8025 68.8282C96.1096 68.8023 96.3939 68.6556 96.593 68.4204L98.9436 65.637C99.1422 65.4013 99.2391 65.0965 99.2133 64.7894C99.1874 64.4823 99.0407 64.198 98.8055 63.9988L86.0342 53.2136C85.7985 53.015 85.4937 52.918 85.1866 52.9439C84.8795 52.9698 84.5952 53.1165 84.3961 53.3517L82.0455 56.1351Z" fill="white"/>
<path d="M89.5429 60.3278C89.4986 60.3898 89.4404 60.4407 89.373 60.4763C89.3057 60.5119 89.2309 60.5314 89.1547 60.5331L87.148 60.5792C87.0836 60.5807 87.0195 60.5695 86.9593 60.5462C86.8992 60.5228 86.8443 60.4879 86.7976 60.4434C86.751 60.3989 86.7136 60.3456 86.6876 60.2866C86.6615 60.2276 86.6474 60.164 86.6459 60.0996C86.6444 60.0351 86.6556 59.971 86.6789 59.9109C86.7022 59.8507 86.7372 59.7958 86.7817 59.7492C86.8262 59.7025 86.8795 59.6651 86.9385 59.6391C86.9975 59.6131 87.0611 59.5989 87.1255 59.5974L88.4383 59.5672L87.1454 56.1559C87.0997 56.0342 87.104 55.8994 87.1576 55.7809C87.2111 55.6624 87.3094 55.57 87.431 55.5239C87.5526 55.4778 87.6875 55.4818 87.8061 55.5351C87.9248 55.5883 88.0174 55.6864 88.0638 55.8079L89.6026 59.8682C89.6304 59.9417 89.6402 60.0207 89.6312 60.0987C89.6222 60.1767 89.5946 60.2515 89.5507 60.3166L89.5429 60.3278Z" fill="#6C63FF"/>
<path d="M89.8003 61.1851C90.2843 61.2562 90.7468 61.4325 91.1553 61.7017C91.5637 61.9709 91.9082 62.3264 92.1644 62.7431C92.4207 63.1598 92.5824 63.6276 92.6383 64.1136C92.6941 64.5996 92.6428 65.0919 92.4878 65.5559L101.908 72.8124L96.0651 74.8232L88.0152 67.624C87.253 67.3119 86.6317 66.7312 86.2691 65.9917C85.9065 65.2522 85.8278 64.4054 86.0478 63.6117C86.2678 62.818 86.7714 62.1327 87.463 61.6854C88.1546 61.2382 88.9862 61.0602 89.8003 61.1851Z" fill="#FFB6B6"/>
<path d="M138.844 64.7731L114.725 79.6024C114.725 79.6024 105.001 76.0043 106.901 74.3386C108.802 72.6729 102.752 71.5469 102.752 71.5469L96.0683 67.0503L92.1899 71.5577C92.1899 71.5577 92.8966 78.8789 94.099 77.6112C95.3014 76.3435 97.0987 79.8065 97.0987 79.8065C97.0987 79.8065 97.6298 83.6733 101.053 82.7002C104.475 81.7271 113.66 91.9268 113.66 91.9268L143.343 80.8561L138.844 64.7731Z" fill="#3F3D56"/>
<path d="M95.3076 50.0526C95.028 50.0526 94.7522 49.9875 94.5022 49.8624C94.2521 49.7373 94.0346 49.5557 93.8669 49.332L89.4495 43.4421C89.3076 43.2529 89.2044 43.0376 89.1457 42.8084C89.087 42.5793 89.074 42.3409 89.1075 42.1067C89.1409 41.8726 89.2202 41.6473 89.3407 41.4438C89.4612 41.2403 89.6206 41.0625 89.8098 40.9206C90.192 40.634 90.6723 40.511 91.1452 40.5785C91.3793 40.612 91.6046 40.6913 91.8081 40.8118C92.0116 40.9323 92.1894 41.0917 92.3313 41.2809L95.2213 45.1339L102.644 34.0003C102.909 33.6028 103.321 33.3269 103.789 33.2332C104.258 33.1395 104.744 33.2358 105.142 33.5007C105.539 33.7657 105.815 34.1777 105.909 34.6462C106.002 35.1146 105.906 35.601 105.641 35.9985L96.8064 49.2505C96.6466 49.4902 96.4316 49.688 96.1796 49.8275C95.9275 49.9669 95.6457 50.0439 95.3577 50.052C95.341 50.0523 95.3243 50.0526 95.3076 50.0526Z" fill="white"/>
</g>
<defs>
<clipPath id="clip0_684_973">
<rect width="200" height="233.276" fill="white"/>
</clipPath>
</defs>
</svg>
