<svg width="200" height="252" viewBox="0 0 200 252" fill="none" xmlns="http://www.w3.org/2000/svg">
<g clip-path="url(#clip0_684_872)">
<path d="M185.632 21.2935H27.871C22.0838 21.2935 17.3779 26.1901 17.3779 32.2118V144.701C17.3779 150.723 22.0838 155.619 27.871 155.619H185.632C191.419 155.619 196.125 150.723 196.125 144.701V32.2118C196.125 26.1901 191.419 21.2935 185.632 21.2935Z" fill="#F2F2F2"/>
<path d="M168.516 29.9581H10.7553C4.96812 29.9581 0.262207 34.8547 0.262207 40.8764V153.366C0.262207 159.387 4.96812 164.284 10.7553 164.284H168.516C174.303 164.284 179.009 159.387 179.009 153.366V40.8764C179.009 34.8547 174.303 29.9581 168.516 29.9581ZM177.906 120.257C177.906 143.938 159.456 163.136 136.697 163.136H10.7553C5.56951 163.136 1.36558 158.762 1.36558 153.366V40.8764C1.36558 35.4805 5.56949 31.1062 10.7553 31.1062H168.516C173.702 31.1062 177.906 35.4805 177.906 40.8764V120.257Z" fill="#3F3D56"/>
<path d="M22.7965 139.906L21.8628 139.294C22.4697 138.291 23.096 137.318 23.7237 136.403L24.6218 137.07C24.0062 137.967 23.3923 138.921 22.7965 139.906Z" fill="#CCCCCC"/>
<path d="M28.8801 131.724L28.0903 130.923C29.774 129.127 31.5459 127.586 33.3567 126.342L33.9649 127.3C32.2196 128.499 30.5088 129.988 28.8801 131.724ZM56.4069 124.478C55.0894 124.478 53.889 124.302 52.9904 124.149L53.1687 123.016C54.0792 123.171 55.1758 123.329 56.4069 123.329C57.4941 123.329 58.5627 123.205 59.6737 122.949L59.9118 124.071C58.7217 124.344 57.5752 124.478 56.4069 124.478ZM39.8969 124.326L39.5651 123.231C40.7503 122.842 41.9782 122.55 43.2143 122.364C44.276 122.204 45.291 122.126 46.317 122.126H46.3849V123.275H46.317C45.3443 123.275 44.3813 123.348 43.3725 123.5C42.195 123.678 41.0254 123.955 39.8969 124.326ZM66.1967 121.008L65.4914 120.125C67.014 118.809 68.1052 117.218 69.2609 115.533L69.7218 114.863L70.6172 115.534L70.159 116.2C68.9608 117.947 67.8288 119.597 66.1967 121.008ZM75.0452 110.481L74.3664 109.576C75.8536 108.368 77.534 107.39 79.5032 106.584C79.8386 106.447 80.1591 106.325 80.4668 106.216L80.8229 107.302C80.5303 107.406 80.2259 107.522 79.907 107.653C78.0378 108.417 76.4476 109.342 75.0452 110.481ZM88.3657 106.493C87.9945 106.493 87.6425 106.49 87.3041 106.486L87.317 105.338C87.6629 105.342 88.0239 105.343 88.4059 105.345C89.7043 105.345 91.5126 105.307 93.9931 105.008L94.1202 106.148C91.5579 106.457 89.721 106.489 88.3657 106.493ZM100.832 104.99L100.613 103.865C102.595 103.448 104.901 102.951 107.183 102.338L107.459 103.45C105.15 104.07 102.828 104.57 100.832 104.99ZM113.958 101.274L113.546 100.209C115.758 99.2808 117.679 98.2341 119.419 97.0087L120.037 97.9594C118.232 99.2309 116.244 100.315 113.958 101.274ZM125.107 93.07L124.211 92.399C124.519 91.9544 124.785 91.5208 125.042 91.1015C125.802 89.8637 126.588 88.5836 128.459 87.0123L128.59 86.9032L129.273 87.8041L129.152 87.9053C127.421 89.3595 126.717 90.5059 125.972 91.7195C125.707 92.152 125.432 92.5994 125.107 93.07ZM135.005 84.4594L134.602 83.3903C136.569 82.5881 138.79 81.9426 141.204 81.4714L141.408 82.5999C139.062 83.0579 136.907 83.6835 135.005 84.4594Z" fill="#CCCCCC"/>
<path d="M148.152 81.7568L148.083 80.6109C149.155 80.5411 150.276 80.4952 151.415 80.4739L151.435 81.622C150.312 81.6427 149.208 81.6881 148.152 81.7568Z" fill="#CCCCCC"/>
<path d="M35.1002 42.3983H19.6198C18.842 42.3983 18.2075 43.0585 18.2075 43.8679C18.2075 44.683 18.842 45.3432 19.6198 45.3432H35.1002C35.8781 45.3432 36.5126 44.683 36.5126 43.8679C36.5126 43.0585 35.8781 42.3983 35.1002 42.3983Z" fill="#E6E6E6"/>
<path d="M61.0294 42.3983H45.549C44.7712 42.3983 44.1367 43.0585 44.1367 43.8679C44.1367 44.683 44.7712 45.3432 45.549 45.3432H61.0294C61.8073 45.3432 62.4418 44.683 62.4418 43.8679C62.4418 43.0585 61.8073 42.3983 61.0294 42.3983Z" fill="#E6E6E6"/>
<path d="M86.9591 42.3983H71.4787C70.7009 42.3983 70.0664 43.0585 70.0664 43.8679C70.0664 44.683 70.7009 45.3432 71.4787 45.3432H86.9591C87.737 45.3432 88.3714 44.683 88.3714 43.8679C88.3714 43.0585 87.737 42.3983 86.9591 42.3983Z" fill="#E6E6E6"/>
<path d="M158.872 139.026H18.1919V140.174H158.872V139.026Z" fill="#E6E6E6"/>
<path d="M151.441 55.216C141.428 55.4858 133.958 58.5512 129.225 64.3146C127.476 66.45 126.764 68.132 126.014 69.9115C125.269 71.6681 124.508 73.4763 122.737 75.8356V73.8839C123.835 72.2077 124.425 70.807 125.004 69.4465C125.788 67.5866 126.532 65.8301 128.386 63.5741C133.329 57.5466 141.075 54.3492 151.408 54.0679L151.441 55.216Z" fill="#CCCCCC"/>
<path d="M126.014 69.9114C125.269 71.668 124.508 73.4763 122.737 75.8356C122.527 76.1168 122.301 76.4096 122.058 76.7139C115.67 84.6184 107.135 87.2131 100.272 89.3026C99.842 89.4346 99.4227 89.5552 99.0144 89.67C92.9128 91.3921 89.5695 91.329 87.0814 91.2888C84.5823 91.2429 82.9327 91.2141 79.9812 92.9707C74.5691 96.1796 72.3513 100.875 70.2053 105.416C67.993 110.089 65.9076 114.503 60.5894 116.575C56.8986 118.01 54.3057 117.299 51.5638 116.552C49.208 115.904 44.9624 99.9373 41.2031 97.609C33.4408 99.3024 28.7239 125.697 22.8374 139.83L21.8223 139.371C27.8633 124.882 32.8395 98.2634 40.9713 96.4839C44.5959 95.6917 49.368 114.761 51.8451 115.439C54.416 116.145 56.8379 116.805 60.2032 115.496C65.1132 113.59 67.011 109.566 69.2122 104.911C71.3307 100.433 73.7306 95.3588 79.4295 91.9719C82.6459 90.0603 84.5161 90.0948 87.098 90.1407C89.5585 90.1866 92.8797 90.244 99.0144 88.4817C99.3234 88.3899 99.6378 88.298 99.9633 88.2004C106.683 86.1568 115.041 83.6138 121.209 75.9791C121.816 75.2271 122.318 74.5325 122.737 73.8838C123.835 72.2076 124.425 70.807 125.004 69.4465C125.788 67.5866 126.764 68.1319 126.014 69.9114Z" fill="#6C63FF"/>
<path d="M67.1823 201.241C66.7456 199.659 65.9978 198.309 65.1074 197.346L61.8725 182.002L54.8213 183.8L58.862 199.171C58.5963 200.472 58.6494 202.024 59.0861 203.607C60.0838 207.221 62.705 209.622 64.9407 208.969C67.1764 208.316 68.18 204.856 67.1823 201.241Z" fill="#FFB6B6"/>
<path d="M66.2069 100.588C66.2069 100.588 55.0715 100.351 52.2401 108.788C49.6628 116.468 46.6076 137.568 48.2592 138.787L55.2892 190.73L65.3138 189.297L62.741 126.973L66.2069 100.588Z" fill="#6C63FF"/>
<path d="M117.772 197.004L115.797 251.538H89.5914L88.5322 227.101L83.876 251.538H55.7896L59.2928 209.53L62.9118 200.696L65.3613 194.708L117.772 197.004Z" fill="#2F2E41"/>
<path d="M96.8078 90.2326L78.6021 89.0845L72.5335 97.1211L59.293 102.287L65.3615 163.71L62.6031 200.449C62.6031 200.449 101.221 232.595 117.772 197.004L113.358 153.951L114.462 104.01L101.773 98.2692L96.8078 90.2326Z" fill="#6C63FF"/>
<path d="M131.856 76.261C132.054 78.2512 131.803 80.1228 131.225 81.6234L134.258 100.459L125.602 101.698L123.458 82.4581C122.598 81.112 121.984 79.3333 121.787 77.3431C121.336 72.7965 123.224 68.8686 126.004 68.5698C128.785 68.271 131.405 71.7145 131.856 76.261Z" fill="#FFB6B6"/>
<path d="M116.78 106.166C113.796 100.859 106.394 100.359 103.079 105.449C102.172 106.84 102.425 108.404 102.209 110.283C101.29 118.26 115.981 141.832 126.146 144.546C127.48 144.903 128.24 146.4 129.587 146.701C133.575 147.593 137.289 144.299 137.073 140.06L134.312 85.6934L122.712 89.8105L123.454 118.036L116.78 106.166Z" fill="#6C63FF"/>
<path d="M89.5944 87.599C98.451 87.599 105.631 80.1283 105.631 70.9129C105.631 61.6974 98.451 54.2267 89.5944 54.2267C80.7378 54.2267 73.5581 61.6974 73.5581 70.9129C73.5581 80.1283 80.7378 87.599 89.5944 87.599Z" fill="#FFB6B6"/>
<path d="M104.531 58.6602C104.393 58.6947 106.642 56.4139 106.738 56.3641C108.945 55.216 106.677 66.4385 105.083 66.1228C101.161 65.3478 99.4669 63.8094 97.9443 67.6497C97.5194 68.7175 97.2546 69.923 96.4271 70.6864C95.2906 71.7255 93.4039 71.6393 92.477 72.8793C91.7322 73.8781 91.9474 75.3477 92.4991 76.4728C93.0508 77.6036 93.8894 78.5623 94.3914 79.7161C94.9541 81.0135 92.5542 85.1408 91.6385 87.4599V87.4657L91.633 87.4793C91.3897 88.0876 90.8114 86.3352 90.2009 86.1603C89.4703 85.951 88.3941 87.7459 87.2305 87.4198C87.225 87.4198 87.2194 87.414 87.2139 87.414C86.105 87.0925 84.8692 86.7481 83.6445 86.4037H83.639C80.1909 85.4278 79.3193 86.8285 79.1538 86.7883L77.0132 84.4577C76.2786 83.9012 76.3616 82.1045 75.8436 81.6219C75.42 81.2273 74.3639 82.1392 74.0526 81.7599C72.5265 79.9 72.1753 78.0394 71.2756 74.366C70.4536 71.0079 68.7489 60.9564 72.2521 60.5029C75.5567 60.0724 73.1404 55.2849 76.467 55.4628C76.2684 54.5903 76.6381 53.6546 77.2394 53.0117C77.8352 52.363 78.6297 51.9611 79.4296 51.6167C83.3742 49.9405 82.7177 48.4997 86.8774 49.4756C87.2912 48.8728 93.299 49.2746 94.0493 49.4756C94.1045 49.487 92.1901 49.9635 95.1527 49.4756C95.0424 50.1817 96.9181 50.4916 96.8078 51.1977C97.2215 50.6179 101.668 53.9474 101.773 54.642C101.911 55.5088 100.653 55.0667 101.492 55.1988C101.988 55.2791 102.838 56.3296 102.755 56.852C103.114 56.3468 103.472 55.8474 103.836 55.3423C103.902 55.348 103.963 55.3595 104.029 55.371C105.707 55.7039 103.784 61.4087 103.853 59.6304C103.98 56.3641 106.203 58.2756 104.531 58.6602Z" fill="#2F2E41"/>
<path d="M165.967 147.471C166.091 147.788 166.517 147.788 166.641 147.471C167.502 145.261 168.729 142.787 170.063 140.896C170.276 140.593 169.982 140.188 169.642 140.316L166.783 141.392V122.974H165.825V141.393L162.965 140.316C162.625 140.188 162.331 140.593 162.545 140.896C163.879 142.787 165.105 145.261 165.967 147.471Z" fill="#3F3D56"/>
<path d="M184.719 166.436C184.627 166.764 184.961 167.04 185.247 166.872C187.242 165.699 189.682 164.555 191.857 163.937C192.205 163.838 192.216 163.331 191.874 163.211L188.991 162.204L200 147.78L199.25 147.16L188.241 161.584L186.645 158.89C186.455 158.57 185.983 158.697 185.969 159.072C185.884 161.416 185.365 164.148 184.719 166.436Z" fill="#3F3D56"/>
<path d="M175.764 178.728H157.16C156.005 178.728 155.065 177.75 155.065 176.548C152.606 169.067 152.654 161.737 155.065 154.549C155.065 153.347 156.005 152.369 157.16 152.369H175.764C176.919 152.369 177.859 153.347 177.859 154.549V176.548C177.859 177.75 176.919 178.728 175.764 178.728Z" fill="#E6E6E6"/>
<path d="M161.146 153.019C158.132 153.019 155.689 155.561 155.689 158.696V176.081C155.689 177.184 156.549 178.078 157.609 178.078H167.897C173.054 178.078 177.234 173.728 177.234 168.362V155.016C177.234 153.913 176.375 153.019 175.315 153.019H161.146Z" fill="white"/>
<path d="M170.794 159.412H162.084C161.865 159.412 161.686 159.226 161.686 158.997C161.686 158.769 161.865 158.583 162.084 158.583H170.794C171.014 158.583 171.192 158.769 171.192 158.997C171.192 159.226 171.014 159.412 170.794 159.412Z" fill="#E6E6E6"/>
<path d="M170.794 168.248H162.084C161.865 168.248 161.686 168.062 161.686 167.833C161.686 167.605 161.865 167.419 162.084 167.419H170.794C171.014 167.419 171.192 167.605 171.192 167.833C171.192 168.062 171.014 168.248 170.794 168.248Z" fill="#E6E6E6"/>
<path d="M175.468 163.833H157.41C157.191 163.833 157.012 163.647 157.012 163.418C157.012 163.19 157.191 163.004 157.41 163.004H175.468C175.688 163.004 175.866 163.19 175.866 163.418C175.866 163.647 175.688 163.833 175.468 163.833Z" fill="#E6E6E6"/>
<path d="M175.681 171.84H168.146C167.927 171.84 167.748 171.654 167.748 171.426C167.748 171.198 167.927 171.012 168.146 171.012H175.681C175.901 171.012 176.079 171.198 176.079 171.426C176.079 171.654 175.901 171.84 175.681 171.84Z" fill="#E6E6E6"/>
<path d="M6.87584 14.1918C10.6733 14.1918 13.7517 11.0561 13.7517 7.18804C13.7517 3.32 10.6733 0.184326 6.87584 0.184326C3.07842 0.184326 0 3.32 0 7.18804C0 11.0561 3.07842 14.1918 6.87584 14.1918Z" fill="#6C63FF"/>
<path d="M61.9967 4.79201H24.9868C23.7171 4.79201 22.6841 3.71713 22.6841 2.39601C22.6841 1.07489 23.7171 0 24.9868 0H61.9967C63.2664 0 64.2994 1.07489 64.2994 2.39601C64.2994 3.71713 63.2664 4.79201 61.9967 4.79201Z" fill="#F2F2F2"/>
<path d="M90.8794 12.9016H24.9868C23.7171 12.9016 22.6841 11.8267 22.6841 10.5056C22.6841 9.18445 23.7171 8.10956 24.9868 8.10956H90.8794C92.1491 8.10956 93.1821 9.18445 93.1821 10.5056C93.1821 11.8267 92.1491 12.9016 90.8794 12.9016Z" fill="#F2F2F2"/>
</g>
<defs>
<clipPath id="clip0_684_872">
<rect width="200" height="251.538" fill="white"/>
</clipPath>
</defs>
</svg>
